<svg xmlns="http://www.w3.org/2000/svg" xmlns:xlink="http://www.w3.org/1999/xlink" width="1024" zoomAndPan="magnify" viewBox="0 0 768 767.999994" height="1024" preserveAspectRatio="xMidYMid meet" version="1.0"><defs><clipPath id="d2fb7382a7"><path d="M 14.957031 83.691406 L 752.957031 83.691406 L 752.957031 684.441406 L 14.957031 684.441406 Z M 14.957031 83.691406 " clip-rule="nonzero"/></clipPath></defs><g clip-path="url(#d2fb7382a7)"><path fill="#556b2f" d="M 17.363281 472.878906 C 13.398438 411.445312 13.4375 337.261719 24.261719 276.921875 C 37.015625 205.835938 62.492188 196.078125 118.011719 191.339844 C 187.5625 185.402344 264.839844 187.453125 275.148438 185.464844 C 286.507812 183.269531 290.246094 174.144531 309.964844 133.722656 C 335.125 82.148438 353.996094 83.753906 409.914062 83.890625 C 500.078125 84.113281 510.007812 84.734375 540.246094 145.15625 C 548.046875 160.742188 555.472656 177.535156 557.476562 184.140625 C 561.636719 197.832031 556.167969 205.917969 541.003906 208.511719 C 534.851562 209.5625 368.636719 209.480469 358.121094 208.421875 C 352.664062 207.871094 351.835938 207.570312 349.941406 205.449219 C 344.300781 199.140625 348.128906 195.109375 352.25 190.503906 C 429.457031 190.503906 538.890625 190.582031 539.492188 189.980469 C 540.925781 188.546875 517.816406 140.738281 509.535156 128.007812 C 494.191406 104.414062 484.730469 103.78125 426.691406 102.503906 C 368.777344 101.226562 355.050781 103.296875 343.605469 115.019531 C 329.925781 129.039062 316.179688 170.238281 302.503906 188.367188 C 295.878906 197.148438 288.984375 201.617188 278.453125 203.953125 C 267.5 206.382812 120.121094 203.355469 80.957031 216.109375 C 65.660156 221.09375 55.683594 233.125 49.113281 254.523438 C 19.816406 349.917969 39.28125 588.519531 50.625 623.960938 C 64 665.746094 114.808594 668.628906 243.003906 664.65625 C 312.503906 662.503906 491.355469 664.371094 539.859375 662.738281 C 645.96875 659.164062 705.746094 666.546875 724.667969 564.105469 C 733.421875 516.699219 751.65625 262.929688 698.230469 214.898438 C 682.339844 200.609375 635.335938 190.382812 606.496094 226.402344 C 599.039062 235.71875 590.207031 253.683594 592.667969 254.53125 C 635.078125 269.109375 654.945312 299.9375 654.945312 324.5625 C 654.945312 368.152344 602.4375 380.367188 578.386719 329.480469 C 568.441406 308.445312 569.292969 292.042969 569.203125 268.722656 C 559.296875 267.050781 546.304688 267.148438 537.191406 267.808594 C 481.152344 271.851562 450.355469 291.949219 433.210938 335.671875 C 423.496094 360.453125 424.820312 370.839844 422.023438 376.246094 C 419.050781 381.996094 409.15625 382.003906 406.199219 376.261719 C 405.382812 374.675781 405.042969 369.105469 404.765625 352.839844 C 404.355469 328.792969 403.601562 324.195312 398.441406 314.375 C 376.28125 272.203125 257.835938 241.253906 240.730469 342.167969 C 229.949219 405.761719 276.890625 479.664062 322.226562 526.136719 C 343.316406 547.75 377.34375 577.101562 393.6875 587.769531 C 400.753906 592.382812 405.007812 593.667969 411.078125 593.035156 C 427.457031 591.320312 465.277344 568.449219 495.28125 542.109375 C 529.089844 512.429688 548.160156 481.371094 556.398438 442.574219 C 567.34375 391.019531 537.527344 364.871094 537.417969 364.789062 C 519.136719 351.128906 504.128906 356.511719 498.628906 351.242188 C 494.332031 347.125 495.171875 340.46875 500.410156 337.15625 C 504.652344 334.46875 519.429688 336.679688 524.234375 337.933594 C 537.59375 341.417969 552.730469 351.230469 560.277344 361.300781 C 579.171875 386.503906 577.464844 416.429688 577.464844 417.242188 C 577.507812 459.355469 560.910156 498.179688 535.464844 528.515625 C 511.5625 557.007812 445.210938 611.191406 408.769531 611.167969 C 397.964844 611.164062 393.277344 614.066406 346.273438 573.871094 C 275.660156 513.484375 201.707031 416.761719 224.0625 327 C 250.640625 220.273438 394.710938 250.441406 417.753906 311.867188 C 418.890625 314.902344 419.992188 317.386719 420.203125 317.390625 C 423.929688 317.460938 436.488281 257.789062 531.859375 249.523438 C 542.144531 248.628906 567.914062 248.9375 571.597656 249.996094 C 573.023438 250.40625 573.390625 249.957031 574.527344 246.398438 C 576.894531 239 584.695312 224.140625 589.675781 217.539062 C 607.878906 193.417969 631.457031 182.226562 661.367188 183.507812 C 685.796875 184.558594 704.777344 192.652344 716.566406 207.046875 C 755.597656 254.703125 753.46875 362.972656 752.832031 425.625 C 751.503906 555.84375 746.363281 649.019531 663.167969 670.984375 C 611.523438 684.621094 445.726562 682.035156 386.289062 682.101562 C 9.914062 682.523438 33.230469 718.707031 17.363281 472.878906 Z M 627.859375 342.339844 C 637.640625 336.800781 641.546875 316.335938 624.699219 296.746094 C 610.550781 280.289062 590.320312 273.195312 589.027344 273.195312 C 587.785156 273.195312 587.714844 274.179688 588.070312 286.722656 C 589.394531 333.375 615.136719 349.546875 627.859375 342.339844 Z M 627.859375 342.339844 " fill-opacity="1" fill-rule="nonzero"/></g></svg>