<svg xmlns="http://www.w3.org/2000/svg" xmlns:xlink="http://www.w3.org/1999/xlink" width="1024" zoomAndPan="magnify" viewBox="0 0 768 767.999994" height="1024" preserveAspectRatio="xMidYMid meet" version="1.0"><path fill="#556b2f" d="M 614.707031 664.609375 C 613.976562 664.230469 614.644531 661.664062 611.046875 664.015625 L 608.1875 611.136719 C 608.46875 607.625 612.804688 609.171875 614.347656 606.390625 C 615.648438 604.046875 614.925781 601.742188 615.59375 600.597656 C 616.222656 599.527344 619.921875 599.796875 619.238281 596.058594 C 618.453125 591.753906 596.835938 572.625 592.117188 568.027344 C 586.609375 562.652344 581.519531 557.378906 575.988281 551.871094 C 574.601562 550.492188 571.988281 548 570.082031 547.476562 L 571.664062 545.351562 L 577.085938 550.730469 L 579.417969 549.117188 L 573.421875 439.160156 C 572.78125 438.222656 552.984375 437.046875 551.859375 441.449219 L 553.378906 525.351562 L 556.039062 531.304688 C 554.179688 531.789062 553.878906 530.558594 552.792969 529.707031 C 531.792969 513.171875 513.390625 488.214844 492.167969 471.957031 L 457.519531 444.722656 C 458.183594 432.191406 458.722656 419.398438 459.039062 406.722656 C 459.097656 404.371094 457.78125 400.097656 457.988281 399.8125 C 458.617188 398.941406 462.496094 399.394531 462.21875 394.945312 C 461.957031 390.777344 454.574219 383.148438 450.371094 382.363281 L 451.734375 270.757812 C 452.769531 268.027344 458.253906 269.597656 457.90625 266.484375 C 457.390625 263.625 440.378906 241.539062 437.710938 239.996094 C 434.542969 238.160156 427.21875 239.863281 423.382812 240.027344 C 423.761719 237.625 426.835938 238.578125 427.816406 237.167969 C 428.871094 235.648438 427.125 229.929688 428.523438 227.390625 C 429.894531 224.902344 432.042969 224.808594 433.140625 223.375 C 435.265625 220.601562 434.9375 194.292969 434.140625 189.898438 C 432.855469 182.84375 422.496094 188.234375 419.597656 185.074219 L 405.839844 93.609375 C 399.042969 91.4375 391.140625 91.28125 384.671875 94.511719 C 385.65625 97.613281 384.125 100.097656 387.828125 101.492188 L 371.621094 185.5625 C 370.695312 190.921875 361.027344 186.1875 358.589844 190.050781 C 357.515625 191.75 356.429688 223.628906 357.601562 224.929688 L 361.902344 223.847656 L 362.984375 241.117188 L 401.894531 239.277344 L 405.050781 241.101562 C 380.152344 241.476562 355.164062 241.816406 330.664062 245.472656 C 329.339844 251.804688 337.714844 251.9375 338.554688 256.359375 L 339.132812 368.734375 C 334.515625 372.726562 324.109375 377.660156 332.855469 383.195312 L 331.539062 451.839844 C 326.261719 457.035156 320.582031 462.027344 315.625 467.453125 C 289.613281 495.941406 264.730469 524.867188 238.585938 554.664062 C 237.515625 555.882812 234.894531 556.539062 234.058594 558.3125 C 232.71875 564.019531 238.035156 561.695312 240.1875 564.152344 C 241.480469 565.625 239.539062 569.027344 243.191406 571.855469 C 245.253906 573.453125 247.246094 573.148438 249.28125 574.40625 L 249.453125 581.769531 C 247.679688 583.546875 243.980469 586.1875 242.578125 587.777344 C 213.195312 621.082031 181.59375 651.652344 151.578125 683.898438 C 150.214844 685.363281 143.949219 692 143.53125 693.167969 C 140.894531 700.523438 156.796875 701.191406 161.261719 701.804688 L 163.355469 762.808594 L 165.320312 764.089844 C 224.28125 765.894531 283.199219 764.4375 342.066406 764.496094 C 400.800781 764.554688 460.011719 767.078125 518.890625 765.441406 C 532.21875 765.070312 546.761719 762.167969 559.789062 762.203125 C 571.90625 762.242188 602.980469 767.996094 612.875 764.550781 C 616.085938 763.429688 618.121094 760.210938 621.867188 760.460938 L 623.167969 758.648438 L 619.652344 678.574219 L 623.777344 677.800781 C 627.089844 670.855469 620.042969 667.351562 614.699219 664.59375 Z M 391.074219 232.800781 C 390.4375 227.519531 391.054688 221.527344 390.351562 216.011719 C 390.105469 214.082031 390.734375 214.90625 392.148438 214.953125 L 393.234375 234.394531 C 391.933594 236.101562 391.265625 234.410156 391.074219 232.804688 Z M 399.847656 213.0625 L 398.617188 234.484375 L 395.398438 234.484375 C 396.316406 230.972656 394.800781 211.980469 392.511719 210.605469 C 383.410156 205.136719 383.320312 221.363281 383.035156 226.390625 C 382.992188 227.179688 384.453125 236.167969 381.351562 233.964844 L 378.324219 211.597656 L 388.921875 180.488281 C 390.300781 181.132812 391.902344 184.582031 392.574219 186.003906 C 396.550781 194.453125 398.074219 204.6875 402.929688 212.351562 L 399.847656 213.066406 Z M 477.449219 463.421875 L 576.8125 560.613281 L 566.398438 553.730469 C 540.878906 526.613281 512.011719 500.457031 486.359375 476.039062 C 484.976562 474.722656 475.667969 465.707031 475.316406 465.011719 C 474.507812 463.421875 476.136719 463.003906 477.453125 463.421875 Z M 502.929688 504.929688 C 513.695312 515.632812 543.445312 542.414062 548.664062 553.890625 C 550.390625 557.683594 549.816406 561 554.132812 564.417969 L 551.609375 566.304688 L 551.964844 682.679688 L 546.53125 678.953125 L 495.773438 631.144531 L 493.644531 614.628906 L 490.484375 615.8125 C 491.1875 618.355469 491.5625 621.097656 491.527344 623.769531 C 491.507812 624.984375 492.179688 626.789062 490.429688 626.5 C 490.191406 622.941406 485.769531 622.199219 484.25 620.800781 C 483.492188 620.105469 483.230469 618.625 482.378906 617.828125 C 473.097656 609.136719 463.71875 600.503906 454.519531 591.679688 C 453.476562 588.789062 452.878906 585.863281 452.578125 582.800781 C 449.226562 548.800781 451.472656 509.445312 450.472656 474.664062 C 450.257812 467.320312 449.242188 460.007812 449.390625 452.59375 C 450.800781 452.753906 451.066406 454.496094 451.96875 455.410156 C 468.777344 472.367188 485.949219 488.050781 502.921875 504.929688 Z M 454.730469 398.242188 L 453.695312 441.796875 L 447.753906 437.761719 C 442.238281 440.582031 445.394531 442.949219 445.164062 446.652344 C 444.625 455.308594 443.765625 463.78125 444.164062 472.476562 C 446.074219 509.730469 447.5 547.101562 447.757812 584.390625 L 441.058594 579.746094 C 439.027344 577.339844 440.828125 567.953125 440.789062 564.4375 C 440.230469 513.402344 440.59375 463.039062 440.285156 412.082031 C 440.230469 403.4375 439.835938 394.199219 438.589844 385.632812 C 439.792969 384.875 442.503906 387.46875 443.535156 388.261719 C 447.027344 390.949219 450.847656 395.574219 454.726562 398.234375 Z M 435.402344 262.957031 C 435.390625 260.628906 433.351562 257.910156 436.410156 257.089844 C 436.316406 257.6875 436.394531 258.355469 436.839844 258.789062 C 438.375 260.269531 447.160156 270.375 447.308594 271.601562 C 447.96875 277.050781 446.199219 286.113281 446.117188 292.117188 C 445.742188 319.164062 445.6875 346.449219 445.839844 373.496094 C 445.851562 375.171875 446.5 375.6875 444.53125 376.964844 L 434.441406 366.777344 C 434.785156 332.289062 435.554688 297.707031 435.398438 262.957031 Z M 431 251.691406 L 428.738281 366.070312 L 343.523438 369.425781 L 342.496094 256.523438 L 431 251.6875 Z M 337.113281 383.980469 L 435.492188 381.320312 L 434.9375 573.578125 L 389.335938 530.402344 C 370.941406 521.269531 354.496094 510.941406 336.109375 501.777344 C 334.347656 500.027344 334.464844 490.734375 334.429688 487.707031 C 334.035156 453.464844 336.761719 418.222656 337.113281 383.980469 Z M 253.617188 551.171875 C 255.675781 548.273438 260.179688 545.34375 262.265625 543.023438 C 280.117188 523.179688 298.410156 502.8125 317.066406 482.769531 C 320.039062 479.574219 323.648438 475.511719 325.527344 473.371094 C 326.589844 472.160156 329.679688 471.246094 329.546875 468.808594 C 331.003906 469.003906 331.480469 470.289062 331.679688 471.582031 C 331.976562 473.515625 330.835938 496.035156 330.441406 497.257812 C 327.628906 499.667969 324.976562 502.257812 322.449219 504.953125 C 301.691406 527.050781 280.390625 548.601562 259.960938 570.957031 L 252.863281 576.8125 C 254.171875 570.683594 250.101562 556.128906 253.625 551.167969 Z M 364.714844 759.496094 L 334.996094 759.398438 C 333.929688 753.035156 336.4375 741.835938 334.996094 736.175781 C 334.902344 735.8125 333.527344 734.519531 332.84375 734.554688 L 333.828125 759.316406 L 301.507812 759.972656 L 300.511719 700.066406 L 331.726562 697.8125 C 331.71875 700.566406 332.707031 703.144531 332.871094 705.886719 C 333.226562 711.8125 330.527344 720.394531 334.980469 724.832031 L 334.019531 698.992188 L 365.792969 699.886719 Z M 362.492188 696.703125 C 341.613281 696.464844 321.085938 695.242188 300.375 696.71875 C 296.105469 693.089844 313.199219 692.046875 314.273438 691.96875 C 331.054688 690.742188 348.191406 694.269531 364.96875 692.613281 L 366.773438 695.671875 C 367.820312 698.828125 363.867188 696.71875 362.492188 696.703125 Z M 334.199219 674.410156 L 337.070312 672.960938 L 337.945312 675.980469 C 334.320312 677.449219 331.347656 684.105469 328.742188 685.933594 C 327.378906 686.890625 325.902344 687.1875 325.210938 685.363281 C 324.765625 684.183594 333.535156 676.75 334.199219 674.410156 Z M 510.441406 756.710938 C 510.351562 757.976562 509.808594 759.070312 508.828125 759.828125 L 373.230469 759.828125 L 371.871094 758.839844 C 372.730469 745.800781 371.132812 732.5625 370.914062 719.472656 C 370.613281 701.492188 376.488281 687.121094 358.589844 674.667969 C 341.726562 662.9375 323.976562 664.503906 308.011719 676.867188 C 303.976562 679.988281 301.257812 685.171875 297.421875 688.289062 C 295.347656 712.125 300.382812 736.605469 298.191406 760.492188 L 167.535156 760.492188 L 165.886719 683.734375 L 202.800781 646.660156 C 242.910156 600.894531 288.472656 560.644531 328.023438 515.910156 C 328.753906 515.085938 328.636719 513.421875 329.507812 512.535156 L 335.09375 519.402344 L 337.023438 518.511719 C 385.234375 570.9375 439.066406 620.820312 490.042969 671.175781 C 497.167969 678.210938 503.652344 686.214844 511.496094 692.347656 C 509.449219 705.976562 509.4375 720.152344 509.382812 733.992188 C 509.359375 740.867188 510.890625 750.21875 510.4375 756.710938 Z M 515.21875 760.324219 L 514.117188 696.339844 C 514.132812 695.25 516.1875 695.667969 517.113281 696.101562 C 517.417969 696.246094 519.242188 699.492188 520.359375 699.984375 C 527.746094 703.234375 541.527344 706.144531 550.132812 707.089844 C 551.269531 707.210938 552.675781 706.351562 553.929688 706.535156 L 553.933594 758.167969 C 552.109375 759.570312 520.730469 756.796875 515.222656 760.324219 Z M 529.535156 692.714844 C 507.335938 674.507812 486.925781 652.535156 467.558594 631.027344 C 464.867188 632.722656 465.71875 630.269531 464.046875 628.601562 C 425.609375 590.226562 386.960938 552.320312 348.417969 514.171875 C 347.316406 511.269531 351.414062 514.433594 351.761719 514.644531 C 360.4375 519.917969 370.148438 526.191406 379.28125 530.835938 C 384.632812 533.558594 382.226562 531.308594 387.253906 535.851562 C 440.015625 583.519531 490.039062 636.398438 544.105469 682.992188 L 557.375 697.804688 L 529.535156 692.71875 Z M 563.316406 760.433594 C 560.667969 760.535156 562.777344 757.894531 562.777344 757.753906 C 562.777344 753.792969 562.003906 744.589844 562.777344 741.550781 C 562.882812 741.136719 564.671875 739.605469 564.929688 739.929688 C 565.371094 742.910156 567.695312 760.265625 563.320312 760.429688 Z M 575.738281 759.347656 C 575.277344 758.796875 575.820312 745.722656 576.085938 744.957031 C 576.507812 743.761719 577.6875 742.398438 578.964844 742.09375 L 579.996094 758.835938 C 579.476562 760.847656 576.050781 759.722656 575.738281 759.351562 Z M 594.085938 759.378906 C 592.59375 759.476562 592.09375 760.300781 592.28125 758.296875 C 592.714844 753.707031 591.328125 748.175781 593.5625 744.257812 C 595.480469 749.015625 594.730469 754.414062 594.085938 759.375 Z M 597.832031 759.453125 C 596.722656 753.027344 599.574219 744.796875 593.433594 739.984375 C 585.355469 740.480469 589.78125 759.496094 589.78125 759.496094 L 583.558594 759.488281 C 585.09375 756.71875 582.074219 740.183594 580.253906 739 C 577.957031 737.5 576.578125 740.636719 575.539062 741.832031 C 575.035156 742.40625 573.773438 742.125 573.773438 742.214844 L 573.773438 759.496094 L 568.804688 758.425781 C 567.914062 751.597656 569.679688 744.273438 565.988281 738.085938 C 558.371094 733.511719 561.066406 753.222656 560.714844 756.8125 C 560.546875 758.488281 560.652344 760.109375 558.558594 760.578125 L 558.558594 705.90625 C 558.558594 705.90625 570.449219 710.792969 571.003906 702.644531 C 571.1875 700.007812 559.660156 692.027344 557.566406 689.457031 L 557.566406 566.023438 L 598.6875 598.433594 C 600.074219 601.023438 601.90625 601.664062 604.898438 601.683594 C 603.910156 603.925781 603.257812 606.230469 603.195312 608.691406 C 602.660156 628.808594 604.367188 653.035156 605.058594 673.402344 C 606.03125 701.929688 607.941406 730.375 608.90625 758.84375 C 608.769531 761.171875 598.230469 760.101562 597.832031 759.457031 Z M 613.660156 754.65625 C 611.984375 736.046875 613.261719 715.128906 612.496094 696.140625 C 612.242188 689.792969 610.414062 682.90625 611.382812 676.199219 C 611.515625 676.023438 614.753906 677.714844 615.203125 678.394531 C 615.777344 679.257812 615.894531 692.988281 615.328125 694.308594 C 611.730469 702.710938 615.972656 710.773438 617.347656 719.945312 C 618.886719 730.183594 616.625 744.085938 618.722656 754.726562 C 617.238281 758.320312 614.132812 759.9375 613.65625 754.65625 Z M 395.113281 54.332031 C 395.113281 52.113281 392.941406 50.46875 393.167969 48.183594 C 393.207031 47.792969 396.953125 46.921875 396.539062 42.648438 L 393.238281 39.433594 C 396.5625 36.328125 399.457031 30.117188 394.308594 27.5625 C 399.941406 22.644531 395.925781 13.429688 397.125 6.359375 C 397.472656 4.316406 397.902344 1.648438 399.171875 0 L 401.734375 66.25 L 400.253906 67.765625 L 393.242188 68.042969 C 392.152344 66.914062 395.113281 56.367188 395.113281 54.332031 Z M 391.765625 79.390625 C 391.757812 78.175781 390.09375 76.636719 389.972656 74.984375 C 389.429688 67.488281 408.351562 68.933594 404.785156 75.359375 C 404.679688 75.550781 403.082031 75.523438 402.921875 76.332031 C 402.546875 78.195312 404.398438 90.03125 404.027344 90.730469 C 401.730469 88.746094 391.503906 90.726562 391.039062 90.265625 C 387.5625 86.78125 391.785156 81.507812 391.765625 79.390625 Z M 571.417969 436.390625 L 555.21875 435.304688 C 556.28125 430.609375 570.410156 431.75 571.332031 433.253906 Z M 361.675781 587.0625 C 361.757812 587.984375 360.175781 590.28125 359.039062 590.679688 C 354.164062 592.394531 338.066406 589.578125 335.542969 592.984375 L 334.457031 647.582031 C 334.59375 650.386719 330.445312 652.621094 328.476562 651.316406 C 325.703125 649.480469 330.625 595.382812 328.921875 592.992188 C 327.046875 590.367188 319.484375 592.105469 315.949219 591.980469 C 311.101562 591.804688 306.1875 591.820312 301.441406 590.839844 L 303.324219 585.417969 L 329.050781 584.421875 C 329.429688 580.925781 325.605469 556.875 332.203125 558.46875 C 337.144531 559.664062 333.480469 581.964844 336.46875 584.457031 C 340.855469 586.519531 361.097656 580.675781 361.667969 587.066406 Z M 277.402344 680.761719 C 284.777344 688.199219 270.800781 697.871094 268.152344 688.382812 C 266.324219 681.835938 274.183594 677.519531 277.402344 680.761719 Z M 394.097656 680.78125 C 396.753906 683.242188 393.421875 688.808594 391.964844 691.128906 C 388.800781 690.765625 385.824219 691.414062 384.304688 687.785156 C 381.410156 680.890625 389.21875 676.261719 394.097656 680.777344 Z M 492.941406 597.433594 C 493.972656 597.207031 494.332031 595.363281 494.484375 594.4375 C 495.128906 590.519531 493.992188 558.078125 493.109375 554.757812 C 492.265625 551.589844 489.785156 549.394531 487.597656 547.296875 C 486.300781 546.050781 486.507812 543.617188 483.917969 544.972656 C 483.570312 545.15625 478.847656 550.246094 478.578125 550.683594 C 473.980469 558.074219 473.730469 575.136719 473.554688 584.082031 C 473.46875 588.488281 474.070312 592.976562 474.230469 597.398438 L 492.9375 597.4375 Z M 478.578125 574.15625 L 488.253906 561.707031 C 488.710938 565.136719 488.820312 570.671875 488.003906 573.859375 C 487.222656 576.90625 484.355469 577.792969 483.246094 579.421875 C 482.800781 580.078125 482.898438 581.078125 482.46875 581.773438 L 477.476562 586.539062 Z M 501.402344 597.152344 C 505.347656 598.148438 517.414062 599.140625 519.125 594.679688 C 517.414062 581.785156 522.390625 563.878906 516.527344 552.324219 C 515.058594 549.429688 512.375 542.929688 508.773438 545.15625 C 508.414062 545.378906 503.617188 551.335938 503.441406 551.71875 C 500.265625 558.652344 499.742188 584.257812 500.539062 592.894531 C 500.636719 593.933594 500.691406 596.671875 501.402344 597.152344 Z M 505.070312 569.316406 C 506.089844 566.722656 510.785156 561.738281 512.847656 558.824219 C 513.484375 557.921875 512.632812 556.75 515.257812 557.382812 C 515.660156 557.90625 514.691406 569.160156 514.105469 570.570312 C 513.867188 571.148438 507.261719 579.945312 506.601562 580.582031 C 505.554688 581.589844 505.234375 582.65625 503.382812 582.210938 C 505.082031 578.019531 503.351562 573.691406 505.066406 569.3125 Z M 402.976562 360.265625 C 404.917969 359.121094 404.875 354.699219 404.976562 352.542969 C 405.488281 341.625 407.300781 314.734375 403.375 305.808594 C 400.558594 299.398438 391.824219 287.894531 383.808594 291.375 C 382.972656 291.742188 375.816406 298.820312 374.910156 300.054688 C 371.726562 304.371094 372.03125 305.679688 370.464844 310.261719 C 370.1875 311.074219 368.839844 311.132812 368.746094 311.386719 C 367.144531 315.667969 366.773438 330.679688 366.636719 336.074219 C 366.425781 344.5625 367.542969 353.363281 367.828125 361.949219 L 402.972656 360.261719 Z M 378.679688 315.40625 C 384.773438 314.273438 392.40625 314.671875 398.632812 314.34375 C 398.722656 315.933594 394.765625 316.242188 393.648438 316.363281 C 387.570312 317.027344 380.984375 316.457031 374.878906 317.5625 C 375.316406 315.4375 377.09375 315.703125 378.679688 315.40625 Z M 377.535156 320.777344 C 384.351562 319.949219 391.867188 320.664062 398.625 319.734375 C 399.078125 322.738281 398.117188 321.761719 395.957031 321.894531 C 388.546875 322.347656 381.128906 321.863281 373.796875 322.960938 C 374.214844 320.972656 375.917969 320.972656 377.53125 320.773438 Z M 576.53125 606.164062 C 578.621094 634.0625 577.808594 662.082031 577.789062 690.113281 C 571.441406 694 571.652344 678.183594 571.40625 673.574219 C 570.609375 658.808594 569.96875 639.113281 570.734375 624.488281 C 570.875 621.808594 571.8125 601.777344 575.199219 601.6875 C 577.582031 603.121094 576.402344 604.441406 576.53125 606.164062 Z M 567.128906 672.480469 C 566.972656 676.171875 566.757812 683.15625 565.988281 686.4375 C 565.0625 690.375 563.753906 688.210938 560.617188 688.03125 C 561.195312 686.464844 561.542969 684.804688 561.519531 683.113281 C 561.195312 661.265625 560.71875 639.414062 560.632812 617.410156 C 560.609375 611.761719 556.363281 595.3125 564.933594 595.1875 C 564.65625 620.707031 568.214844 646.976562 567.128906 672.480469 Z M 589.746094 609.292969 L 592.980469 609.304688 L 592.964844 693.617188 L 589.339844 693.664062 C 587.527344 693.238281 587.152344 683.4375 586.992188 681.125 C 585.984375 667.011719 586.960938 647.015625 587.574219 632.460938 C 587.898438 624.753906 588.8125 616.984375 589.75 609.292969 Z M 436.890625 323.515625 C 436.980469 319.683594 437.578125 304.304688 438.828125 302.144531 C 439.628906 300.753906 439.96875 299.917969 441.824219 300.296875 C 442.757812 313.757812 443.609375 327.285156 443.492188 340.835938 C 443.425781 348.207031 443.859375 362.554688 442.855469 368.832031 C 442.644531 370.148438 442.265625 371.355469 440.773438 371.585938 L 437.003906 366.359375 C 437.902344 352.183594 436.558594 337.71875 436.894531 323.515625 Z M 436.890625 323.515625 " fill-opacity="1" fill-rule="nonzero"/></svg>