<svg xmlns="http://www.w3.org/2000/svg" xmlns:xlink="http://www.w3.org/1999/xlink" width="1024" zoomAndPan="magnify" viewBox="0 0 768 767.999994" height="1024" preserveAspectRatio="xMidYMid meet" version="1.0"><defs><g/><clipPath id="ceeb319786"><path d="M 97 0.0390625 L 738.878906 0.0390625 L 738.878906 459 L 97 459 Z M 97 0.0390625 " clip-rule="nonzero"/></clipPath><clipPath id="67f7f598af"><rect x="0" width="642" y="0" height="459"/></clipPath><clipPath id="521df37842"><path d="M 0.785156 144.511719 L 723.546875 144.511719 L 723.546875 542.636719 L 0.785156 542.636719 Z M 0.785156 144.511719 " clip-rule="nonzero"/></clipPath><clipPath id="c7fa11607d"><rect x="0" width="739" y="0" height="543"/></clipPath></defs><g transform="matrix(1, 0, 0, 1, 14, 149)"><g clip-path="url(#c7fa11607d)"><g clip-path="url(#ceeb319786)"><g transform="matrix(1, 0, 0, 1, 97, -0.000000000000056843)"><g clip-path="url(#67f7f598af)"><g fill="#556b2f" fill-opacity="1"><g transform="translate(1.893377, 368.237858)"><g><path d="M 10.765625 -358.75 L 73.546875 -358.75 L 274.4375 -52.375 L 274.4375 -208.796875 C 274.4375 -243.710938 271.566406 -271.875 265.828125 -293.28125 C 260.085938 -314.6875 252.613281 -330.347656 243.40625 -340.265625 C 234.195312 -350.191406 224.453125 -355.15625 214.171875 -355.15625 L 214.171875 -358.75 L 311.03125 -358.75 L 311.03125 -355.15625 C 300.75 -355.15625 293.273438 -352.046875 288.609375 -345.828125 C 283.953125 -339.609375 281.023438 -329.503906 279.828125 -315.515625 C 278.628906 -301.523438 278.03125 -282.691406 278.03125 -259.015625 L 278.03125 7.171875 L 274.4375 7.171875 L 47.359375 -338.65625 L 47.359375 -149.953125 C 47.359375 -115.273438 50.226562 -87.171875 55.96875 -65.640625 C 61.707031 -44.117188 69.179688 -28.394531 78.390625 -18.46875 C 87.597656 -8.550781 97.34375 -3.59375 107.625 -3.59375 L 107.625 0 L 10.765625 0 L 10.765625 -3.59375 C 21.046875 -3.59375 28.519531 -6.703125 33.1875 -12.921875 C 37.851562 -19.140625 40.78125 -29.300781 41.96875 -43.40625 C 43.164062 -57.519531 43.765625 -76.296875 43.765625 -99.734375 L 43.765625 -259.015625 C 43.765625 -282.691406 43.164062 -301.523438 41.96875 -315.515625 C 40.78125 -329.503906 37.851562 -339.609375 33.1875 -345.828125 C 28.519531 -352.046875 21.046875 -355.15625 10.765625 -355.15625 Z M 10.765625 -358.75 "/></g></g></g><g fill="#556b2f" fill-opacity="1"><g transform="translate(323.662083, 368.237858)"><g><path d="M 10.765625 -62.78125 C 10.765625 -77.613281 14.226562 -90.945312 21.15625 -102.78125 C 28.09375 -114.625 37.003906 -125.382812 47.890625 -135.0625 C 58.773438 -144.75 70.316406 -153.597656 82.515625 -161.609375 C 94.710938 -169.628906 106.25 -177.046875 117.125 -183.859375 C 128.007812 -190.671875 136.921875 -197.1875 143.859375 -203.40625 C 150.796875 -209.625 154.265625 -215.84375 154.265625 -222.0625 C 154.265625 -225.414062 153.425781 -227.867188 151.75 -229.421875 C 150.070312 -230.972656 148.039062 -231.75 145.65625 -231.75 C 141.34375 -231.75 137.332031 -229.832031 133.625 -226 C 129.925781 -222.175781 126.28125 -217.8125 122.6875 -212.90625 C 119.101562 -208.007812 115.21875 -203.644531 111.03125 -199.8125 C 106.84375 -195.988281 102.238281 -194.078125 97.21875 -194.078125 C 92.195312 -194.078125 89.144531 -196.109375 88.0625 -200.171875 C 86.988281 -204.242188 87.289062 -208.550781 88.96875 -213.09375 C 94.46875 -227.445312 99.488281 -240.78125 104.03125 -253.09375 C 108.582031 -265.414062 113.066406 -277.375 117.484375 -288.96875 C 121.910156 -300.570312 126.457031 -312.59375 131.125 -325.03125 C 135.789062 -337.46875 140.992188 -351.097656 146.734375 -365.921875 L 150.3125 -365.921875 L 265.109375 -62.78125 C 273.003906 -43.164062 280.421875 -28.394531 287.359375 -18.46875 C 294.296875 -8.550781 303.265625 -3.59375 314.265625 -3.59375 L 314.265625 0 L 196.59375 0 L 196.59375 -3.59375 C 209.269531 -3.59375 218.894531 -5.265625 225.46875 -8.609375 C 232.050781 -11.953125 236.296875 -16.613281 238.203125 -22.59375 C 240.117188 -28.570312 240.359375 -35.507812 238.921875 -43.40625 C 237.492188 -51.300781 235.101562 -59.789062 231.75 -68.875 L 187.265625 -186.1875 C 188.703125 -174.707031 189.421875 -160.359375 189.421875 -143.140625 C 189.421875 -114.203125 184.9375 -88.367188 175.96875 -65.640625 C 167 -42.921875 154.082031 -25.101562 137.21875 -12.1875 C 120.363281 0.71875 99.976562 7.171875 76.0625 7.171875 C 62.1875 7.171875 50.40625 3.941406 40.71875 -2.515625 C 31.03125 -8.972656 23.613281 -17.519531 18.46875 -28.15625 C 13.332031 -38.800781 10.765625 -50.34375 10.765625 -62.78125 Z M 41.25 -69.59375 C 41.25 -52.851562 46.269531 -38.742188 56.3125 -27.265625 C 66.363281 -15.785156 80.117188 -10.046875 97.578125 -10.046875 C 112.648438 -10.046875 125.6875 -14.109375 136.6875 -22.234375 C 147.6875 -30.367188 156.832031 -41.015625 164.125 -54.171875 C 171.414062 -67.328125 176.851562 -81.675781 180.4375 -97.21875 C 184.03125 -112.769531 185.828125 -127.835938 185.828125 -142.421875 C 185.828125 -155.816406 185.410156 -167.773438 184.578125 -178.296875 C 183.742188 -188.816406 181.648438 -199.34375 178.296875 -209.875 L 134.890625 -324.3125 L 93.640625 -214.53125 C 91.242188 -208.3125 90.582031 -203.945312 91.65625 -201.4375 C 92.738281 -198.925781 94.710938 -197.671875 97.578125 -197.671875 C 101.640625 -197.671875 105.582031 -199.582031 109.40625 -203.40625 C 113.238281 -207.238281 117.066406 -211.601562 120.890625 -216.5 C 124.722656 -221.40625 128.726562 -225.769531 132.90625 -229.59375 C 137.09375 -233.425781 141.582031 -235.34375 146.375 -235.34375 C 149.71875 -235.34375 152.523438 -234.207031 154.796875 -231.9375 C 157.066406 -229.664062 158.203125 -226.132812 158.203125 -221.34375 C 158.203125 -213.457031 155.390625 -206.222656 149.765625 -199.640625 C 144.148438 -193.066406 136.914062 -186.671875 128.0625 -180.453125 C 119.21875 -174.234375 109.773438 -167.65625 99.734375 -160.71875 C 89.691406 -153.78125 80.242188 -146.066406 71.390625 -137.578125 C 62.546875 -129.085938 55.3125 -119.34375 49.6875 -108.34375 C 44.0625 -97.34375 41.25 -84.425781 41.25 -69.59375 Z M 41.25 -69.59375 "/></g></g></g></g></g></g><g clip-path="url(#521df37842)"><path fill="#556b2f" d="M 126.421875 363.746094 C 122.015625 365.03125 117.480469 366.011719 112.859375 366.667969 C 108.300781 367.316406 103.660156 367.648438 98.972656 367.648438 C 71.902344 367.648438 47.386719 356.675781 29.644531 338.9375 C 11.902344 321.195312 0.929688 296.6875 0.929688 269.609375 C 0.929688 242.539062 11.902344 218.027344 29.644531 200.285156 C 47.386719 182.542969 71.902344 171.570312 98.972656 171.570312 C 114.019531 171.570312 128.28125 174.96875 141.035156 181.03125 C 154.277344 187.332031 165.886719 196.515625 175.046875 207.773438 C 202.785156 241.386719 225.386719 276.660156 247.964844 311.910156 C 294.496094 384.542969 340.96875 457.070312 431.792969 513.734375 C 440.089844 518.253906 448.753906 522.191406 457.730469 525.480469 C 478.523438 533.101562 500.996094 537.261719 524.449219 537.261719 C 577.996094 537.261719 626.472656 515.554688 661.554688 480.472656 C 696.644531 445.382812 718.34375 396.90625 718.34375 343.367188 C 718.34375 289.820312 696.640625 241.347656 661.554688 206.261719 C 628.363281 173.070312 583.199219 151.863281 533.09375 149.664062 C 537.03125 152.511719 539.601562 157.152344 539.601562 162.390625 C 539.601562 171.0625 532.574219 178.089844 523.902344 178.089844 C 515.230469 178.089844 508.203125 171.0625 508.203125 162.390625 C 508.203125 154.84375 513.535156 148.539062 520.628906 147.03125 L 520.589844 144.570312 L 524.4375 144.523438 C 579.347656 144.523438 629.0625 166.78125 665.046875 202.765625 C 701.03125 238.75 723.289062 288.457031 723.289062 343.371094 C 723.289062 398.28125 701.03125 447.996094 665.046875 483.980469 C 629.0625 519.964844 579.351562 542.222656 524.4375 542.222656 C 500.410156 542.222656 477.359375 537.953125 456.019531 530.136719 C 433.902344 522.027344 413.625 510.109375 395.988281 495.167969 C 325.410156 441.960938 284.632812 378.316406 243.800781 314.59375 C 221.277344 279.441406 198.742188 244.257812 171.222656 210.910156 L 173.125 209.347656 L 171.210938 210.90625 C 162.515625 200.222656 151.496094 191.503906 138.917969 185.519531 C 126.820312 179.761719 113.265625 176.539062 98.960938 176.539062 C 73.25 176.539062 49.976562 186.957031 33.128906 203.804688 C 16.28125 220.652344 5.863281 243.925781 5.863281 269.632812 C 5.863281 295.34375 16.28125 318.617188 33.128906 335.460938 C 49.976562 352.308594 73.25 362.730469 98.960938 362.730469 C 103.472656 362.730469 107.878906 362.410156 112.164062 361.804688 C 116.574219 361.183594 120.871094 360.25 125.03125 359.035156 L 126.40625 363.773438 Z M 126.421875 363.746094 " fill-opacity="1" fill-rule="nonzero"/></g></g></g></svg>