<svg xmlns="http://www.w3.org/2000/svg" xmlns:xlink="http://www.w3.org/1999/xlink" width="1024" zoomAndPan="magnify" viewBox="0 0 768 767.999994" height="1024" preserveAspectRatio="xMidYMid meet" version="1.0"><path fill="#556b2f" d="M 482.992188 701.8125 C 482.628906 701.445312 479.207031 702.769531 478.363281 702.929688 C 477.929688 703.019531 477.363281 702.882812 476.769531 702.972656 C 462.222656 705.183594 447.0625 704.820312 432.46875 707.351562 C 424.898438 708.652344 407.277344 712.640625 403.421875 719.84375 C 401.644531 723.128906 402.441406 724.359375 405.339844 726.136719 C 418.902344 734.550781 446.261719 737.628906 461.949219 738.972656 C 498.449219 742.097656 541.429688 744.992188 576.699219 734.550781 C 583.789062 732.453125 592.226562 729.238281 595.597656 722.261719 C 595.050781 720.597656 594.890625 718.957031 593.910156 717.449219 C 593.410156 716.675781 591.996094 715.214844 591.246094 714.648438 C 585.796875 710.40625 576.765625 709.378906 570.246094 708.285156 C 552.871094 705.390625 535.089844 704.203125 517.695312 701.21875 C 516.417969 700.988281 515.34375 701.71875 514.386719 700.144531 C 513.863281 700.191406 514.113281 701.035156 514.113281 701.515625 C 514.070312 704.363281 513.316406 709.152344 513.542969 711.363281 C 513.636719 712.140625 514.867188 713.804688 512.746094 713.804688 C 511.652344 713.804688 510.945312 712.277344 510.808594 711.363281 C 510.328125 707.898438 511.171875 703.453125 510.855469 699.851562 C 510.808594 699.257812 510.375 698.9375 510.351562 698.710938 C 506.019531 663.804688 509.714844 628.761719 508.621094 593.21875 C 509.144531 591.28125 509.804688 590.414062 511.925781 590.777344 C 512.015625 592.03125 512.90625 593.71875 513.042969 594.859375 C 513.726562 601.082031 513.75 607.71875 514.089844 614.03125 C 515.503906 640.183594 516.027344 668.296875 514.636719 694.925781 C 514.59375 695.929688 514.707031 696.953125 514.636719 697.957031 C 519.996094 698.140625 525.421875 697.707031 530.78125 697.957031 C 543.207031 698.480469 556.910156 699.871094 569.105469 701.742188 C 579 703.269531 593.820312 705.046875 599.65625 714.375 C 601.070312 716.628906 601.527344 718.726562 602.140625 721.191406 C 601.6875 722.96875 601.550781 724.859375 600.933594 726.59375 C 598.152344 734.503906 586.25 739.292969 578.796875 741.640625 C 534.953125 755.433594 478.546875 749.78125 433.972656 742.78125 C 422.800781 741.027344 407.230469 739.40625 398.109375 731.609375 C 397.609375 731.175781 397.609375 730.5625 397.3125 730.21875 C 395.238281 727.894531 394.917969 727.6875 394.234375 724.542969 C 394.1875 724.292969 393.847656 724.109375 393.800781 723.878906 C 393.550781 722.351562 394.554688 721.214844 394.347656 719.617188 C 400.070312 705.664062 417.648438 701.035156 431.167969 699.03125 C 445.671875 696.886719 459.167969 697.5 473.851562 696.886719 C 476.039062 696.796875 478.363281 696.066406 480.964844 696.292969 C 481.554688 696.339844 482.195312 697 482.308594 696.863281 C 482.378906 696.796875 482.242188 696.042969 482.378906 695.5625 C 483.378906 691.777344 482.992188 684.4375 482.878906 680.175781 C 482.46875 664.398438 481.511719 649.441406 481.738281 633.160156 C 481.738281 632.820312 481.785156 631.179688 481.808594 631.0625 C 484.476562 616.953125 480.234375 598.1875 482.832031 583.9375 C 483.105469 582.5 483.996094 580.859375 483.949219 579.308594 C 481.03125 581.703125 478 584.828125 476.015625 588.066406 C 472.050781 594.5625 471.160156 602.496094 467.464844 609.0625 C 462.472656 617.953125 454.242188 622.558594 444.324219 624.179688 C 432.992188 626.027344 411.90625 622.285156 403.832031 632.363281 C 399.523438 637.746094 396.742188 646.476562 392.914062 652.609375 C 387.875 660.65625 376.609375 670.027344 367.671875 673.3125 C 366.441406 673.769531 362.179688 675.136719 361.175781 675.042969 C 360.402344 674.976562 359.738281 674.179688 358.734375 674.472656 C 358.347656 670.847656 360.082031 672.125 362.316406 671.761719 C 368.472656 670.78125 380.167969 662.527344 384.179688 657.535156 C 386.6875 654.386719 388.992188 648.984375 390.382812 645.15625 C 393.140625 637.585938 394.167969 625.890625 400.300781 620.621094 C 405.042969 616.542969 413.160156 614.078125 419.15625 613.234375 C 427.589844 612.027344 439.171875 613.371094 446.992188 610.429688 C 457.914062 606.351562 458.074219 596.316406 462.722656 587.335938 C 466.347656 580.359375 476.265625 569.621094 484.316406 568.457031 C 485.433594 568.296875 489.785156 568.59375 489.992188 568.390625 C 490.0625 568.320312 490.0625 566.269531 489.992188 566.199219 C 489.582031 565.789062 480.027344 566.3125 478.203125 566.199219 C 458.324219 565.058594 433.335938 558.472656 414.320312 551.335938 C 398.363281 545.363281 372.4375 530.269531 369.75 511.710938 C 368.859375 505.578125 373.257812 497.050781 378.433594 493.722656 C 386.917969 488.273438 397.8125 487.863281 407.070312 491.351562 C 423.917969 497.664062 444.597656 514.242188 458.277344 526.003906 C 465.003906 531.773438 474.285156 539.660156 479.890625 546.5 C 480.394531 547.117188 480.988281 548.074219 481.488281 548.714844 C 482.789062 550.285156 487.371094 555.027344 488.875 556.101562 C 489.238281 556.351562 490.835938 557.171875 491.0625 556.898438 C 492.226562 552.316406 495.601562 548.53125 500.640625 549.214844 C 501.507812 549.328125 503.921875 551.199219 504.445312 551.949219 C 504.765625 552.382812 505.609375 554.003906 505.746094 554.480469 C 505.929688 555.121094 505.472656 556.121094 506.089844 556.328125 C 507.367188 555.4375 508.914062 554.777344 510.191406 553.867188 C 518.378906 547.984375 527.589844 538.773438 535.089844 531.726562 C 556.222656 511.867188 586.273438 476.164062 614.980469 469.988281 C 624.167969 468.003906 636.753906 471.171875 641.925781 479.5625 C 642.566406 480.589844 644.457031 484.554688 644.664062 485.558594 C 644.824219 486.3125 644.59375 487.0625 644.6875 487.703125 C 646.101562 496.433594 639.714844 509.589844 634.039062 516.40625 C 617.257812 536.582031 584.90625 549.328125 560.28125 556.921875 C 547.949219 560.726562 532.375 565.265625 519.769531 566.175781 C 517.808594 566.3125 507.34375 565.699219 506.910156 566.175781 C 506.726562 566.359375 507.023438 569.484375 506.910156 570.304688 C 506.796875 571.125 506.042969 571.71875 506.339844 572.742188 L 515.367188 572.742188 C 515.550781 572.742188 517.96875 573.152344 518.675781 573.269531 C 539.878906 576.800781 543.59375 596.089844 555.289062 610.476562 C 556.203125 611.59375 556.929688 613.074219 558.277344 614.03125 C 559.917969 615.21875 561.082031 615.148438 562.859375 615.46875 C 568.765625 616.496094 574.941406 615.5625 580.984375 615.925781 C 583.265625 616.0625 586.890625 616.585938 589.191406 617.019531 C 598.929688 618.867188 606.976562 626.320312 610.691406 635.441406 C 611.878906 638.359375 612.402344 641.667969 613.585938 644.585938 C 615.160156 648.527344 619.035156 654.367188 623.140625 655.800781 C 627.246094 657.238281 632.808594 658.011719 637.320312 658.582031 C 637.960938 658.652344 638.324219 659.109375 638.917969 659.175781 C 641.425781 659.402344 646.214844 658.628906 648.199219 659.175781 C 648.675781 659.3125 650.136719 661.320312 650.136719 661.59375 C 650.136719 661.683594 648.972656 662.871094 648.746094 662.914062 C 647.398438 663.304688 639.714844 663.097656 637.824219 662.960938 C 637.207031 662.914062 636.84375 662.4375 636.226562 662.367188 C 624.601562 661.183594 611.605469 659.539062 604.832031 648.367188 C 600.59375 641.390625 598.632812 631.769531 589.125 629.628906 C 582.785156 628.191406 575.011719 629.445312 568.375 629.035156 C 566.574219 628.921875 563.632812 628.28125 561.765625 627.988281 C 555.085938 626.960938 550.640625 623.949219 546.238281 618.914062 C 538.28125 609.792969 532.261719 591.371094 523.300781 584.988281 C 519.242188 582.089844 511.539062 580.953125 506.679688 580.289062 C 506.40625 580.246094 506.269531 579.8125 505.542969 579.8125 C 504.996094 579.8125 505.40625 580.449219 505.175781 581.109375 C 504.996094 581.636719 503.96875 583.734375 503.625 583.9375 C 503.398438 584.074219 502.007812 584.597656 501.644531 584.691406 C 501.1875 584.804688 498.292969 583.753906 498.15625 583.617188 C 498.0625 583.527344 498.15625 582.933594 497.882812 582.546875 C 497.449219 581.929688 496.078125 581.703125 495.394531 581.203125 C 494.1875 580.335938 492.523438 577.324219 491.816406 577.121094 C 489.878906 576.574219 488.054688 578.03125 486.117188 577.644531 C 489.421875 580.929688 488.078125 585.648438 488.28125 589.957031 C 489.492188 614.695312 488.898438 640.914062 487.78125 665.96875 C 487.1875 679.332031 486.664062 693.558594 485.546875 706.941406 C 485.433594 708.355469 485.867188 710.726562 485.546875 711.867188 C 485.203125 713.097656 484.179688 712.140625 483.378906 712.140625 C 483.632812 711.476562 482.832031 710.863281 482.832031 710.769531 C 482.832031 709.449219 483.152344 702.0625 482.832031 701.742188 Z M 523.460938 555.257812 C 525.011719 555.667969 526.335938 554.867188 527.542969 554.6875 C 554.445312 550.742188 587.6875 536.152344 610.417969 521.078125 C 619.035156 515.378906 631.257812 503.226562 632.761719 492.582031 C 633.332031 488.589844 632.285156 485.695312 629 483.347656 C 626.878906 481.820312 624.988281 481.820312 622.683594 481.453125 C 621.910156 481.339844 621.523438 480.769531 620.496094 480.863281 C 617.875 481.113281 613.863281 482.140625 611.285156 483.140625 C 583.308594 494.269531 561.902344 524.203125 539.832031 542.375 C 536.207031 545.363281 532.671875 548.347656 528.910156 551.152344 C 527.109375 552.496094 524.851562 553.410156 523.4375 555.257812 Z M 481.898438 556.351562 C 480.121094 555.734375 477.839844 554.550781 476.222656 553.546875 C 452.554688 538.839844 431.214844 512.644531 405.542969 502.292969 C 400.027344 500.058594 395.191406 498.53125 389.289062 500.082031 C 386.984375 500.699219 385.777344 501.65625 384.042969 503.046875 C 383.65625 503.363281 383.085938 503.25 382.996094 503.34375 C 382.878906 503.457031 383.039062 503.867188 382.902344 504.050781 C 381.46875 506.007812 381.535156 506.054688 381.261719 508.425781 C 381.238281 508.699219 380.691406 508.949219 380.804688 509.519531 C 380.851562 509.773438 381.214844 509.953125 381.261719 510.203125 C 381.648438 513.511719 383.519531 516.816406 385.683594 519.4375 C 400.277344 537.199219 431.648438 544.746094 453.171875 550.398438 C 461.585938 552.613281 471.136719 555.324219 479.550781 556.828125 C 480.074219 556.921875 482.058594 557.332031 481.945312 556.351562 Z M 481.898438 556.351562 " fill-opacity="1" fill-rule="nonzero"/><path fill="#556b2f" d="M 224.902344 631.816406 C 224.539062 631.453125 221.117188 632.773438 220.277344 632.933594 C 219.84375 633.023438 219.273438 632.886719 218.679688 632.980469 C 204.132812 635.191406 188.972656 634.824219 174.378906 637.355469 C 166.8125 638.65625 149.1875 642.644531 145.332031 649.851562 C 143.554688 653.132812 144.355469 654.367188 147.25 656.144531 C 160.816406 664.554688 188.175781 667.632812 203.859375 668.980469 C 240.363281 672.101562 283.339844 675 318.609375 664.554688 C 325.699219 662.460938 334.136719 659.246094 337.511719 652.269531 C 336.960938 650.601562 336.804688 648.960938 335.824219 647.457031 C 335.320312 646.683594 333.90625 645.222656 333.15625 644.652344 C 327.707031 640.410156 318.679688 639.386719 312.15625 638.292969 C 294.785156 635.394531 277 634.210938 259.605469 631.222656 C 258.328125 630.996094 257.257812 631.726562 256.296875 630.152344 C 255.773438 630.199219 256.023438 631.042969 256.023438 631.519531 C 255.980469 634.371094 255.226562 639.15625 255.453125 641.371094 C 255.546875 642.144531 256.777344 643.808594 254.65625 643.808594 C 253.5625 643.808594 252.855469 642.28125 252.71875 641.371094 C 252.242188 637.902344 253.082031 633.457031 252.765625 629.855469 C 252.71875 629.261719 252.285156 628.945312 252.261719 628.714844 C 247.929688 593.808594 251.625 558.765625 250.53125 523.222656 C 251.054688 521.285156 251.714844 520.417969 253.835938 520.785156 C 253.925781 522.039062 254.816406 523.726562 254.953125 524.863281 C 255.636719 531.089844 255.660156 537.722656 256.003906 544.039062 C 257.414062 570.191406 257.941406 598.300781 256.550781 624.929688 C 256.503906 625.933594 256.617188 626.960938 256.550781 627.964844 C 261.90625 628.144531 267.332031 627.710938 272.691406 627.964844 C 285.117188 628.488281 298.820312 629.878906 311.015625 631.75 C 320.910156 633.277344 335.730469 635.054688 341.566406 644.378906 C 342.980469 646.636719 343.4375 648.734375 344.054688 651.195312 C 343.597656 652.972656 343.460938 654.867188 342.84375 656.597656 C 340.0625 664.511719 328.164062 669.300781 320.707031 671.648438 C 276.863281 685.441406 220.457031 679.785156 175.886719 672.789062 C 164.714844 671.03125 149.140625 669.414062 140.023438 661.617188 C 139.519531 661.183594 139.519531 660.566406 139.222656 660.226562 C 137.148438 657.898438 136.828125 657.695312 136.144531 654.546875 C 136.101562 654.296875 135.757812 654.113281 135.710938 653.886719 C 135.460938 652.359375 136.464844 651.21875 136.261719 649.625 C 141.984375 635.667969 159.5625 631.042969 173.082031 629.035156 C 187.582031 626.890625 201.078125 627.507812 215.761719 626.890625 C 217.949219 626.800781 220.277344 626.070312 222.875 626.300781 C 223.46875 626.34375 224.105469 627.007812 224.21875 626.871094 C 224.289062 626.800781 224.152344 626.046875 224.289062 625.570312 C 225.292969 621.785156 224.902344 614.445312 224.789062 610.179688 C 224.378906 594.402344 223.421875 579.445312 223.648438 563.167969 C 223.648438 562.824219 223.695312 561.183594 223.71875 561.070312 C 226.386719 546.957031 222.144531 528.195312 224.746094 513.945312 C 225.019531 512.507812 225.90625 510.867188 225.863281 509.316406 C 222.941406 511.710938 219.910156 514.832031 217.925781 518.070312 C 213.960938 524.570312 213.070312 532.503906 209.378906 539.070312 C 204.382812 547.960938 196.152344 552.566406 186.234375 554.183594 C 174.90625 556.03125 153.816406 552.292969 145.746094 562.371094 C 141.433594 567.75 138.652344 576.484375 134.824219 582.617188 C 129.785156 590.664062 118.523438 600.035156 109.585938 603.316406 C 108.351562 603.773438 104.089844 605.140625 103.085938 605.050781 C 102.3125 604.980469 101.648438 604.183594 100.648438 604.480469 C 100.257812 600.855469 101.992188 602.132812 104.226562 601.765625 C 110.382812 600.785156 122.078125 592.535156 126.089844 587.539062 C 128.597656 584.394531 130.902344 578.992188 132.292969 575.160156 C 135.050781 567.589844 136.078125 555.894531 142.210938 550.628906 C 146.953125 546.546875 155.070312 544.085938 161.066406 543.242188 C 169.5 542.03125 181.082031 543.378906 188.902344 540.4375 C 199.824219 536.355469 199.984375 526.324219 204.636719 517.339844 C 208.261719 510.363281 218.179688 499.625 226.226562 498.464844 C 227.34375 498.304688 231.699219 498.601562 231.902344 498.394531 C 231.972656 498.328125 231.972656 496.273438 231.902344 496.207031 C 231.492188 495.796875 221.941406 496.320312 220.117188 496.207031 C 200.234375 495.066406 175.246094 488.476562 156.230469 481.339844 C 140.273438 475.367188 114.351562 460.273438 111.660156 441.714844 C 110.769531 435.582031 115.171875 427.054688 120.347656 423.726562 C 128.828125 418.277344 139.726562 417.867188 148.980469 421.355469 C 165.054688 427.375 183.773438 442.332031 196.90625 453.273438 C 204.703125 459.773438 215.328125 468.597656 221.804688 476.507812 C 222.304688 477.121094 222.898438 478.082031 223.398438 478.71875 C 224.699219 480.292969 229.28125 485.035156 230.785156 486.105469 C 231.152344 486.355469 232.746094 487.175781 232.976562 486.902344 C 234.136719 482.320312 237.511719 478.535156 242.550781 479.21875 C 243.417969 479.335938 245.832031 481.203125 246.359375 481.957031 C 246.675781 482.390625 247.519531 484.007812 247.65625 484.488281 C 247.839844 485.125 247.382812 486.128906 248 486.332031 C 249.277344 485.445312 250.828125 484.785156 252.105469 483.871094 C 260.289062 477.988281 269.5 468.777344 277 461.734375 C 298.136719 441.875 328.183594 406.171875 356.890625 399.992188 C 366.078125 398.007812 378.664062 401.179688 383.839844 409.570312 C 384.476562 410.59375 386.371094 414.5625 386.574219 415.566406 C 386.734375 416.316406 386.507812 417.070312 386.597656 417.707031 C 388.011719 426.441406 381.625 439.59375 375.949219 446.414062 C 359.167969 466.589844 326.816406 479.335938 302.195312 486.925781 C 289.859375 490.734375 274.289062 495.269531 261.679688 496.183594 C 259.71875 496.320312 249.253906 495.703125 248.820312 496.183594 C 248.636719 496.367188 248.933594 499.488281 248.820312 500.308594 C 248.707031 501.128906 247.953125 501.722656 248.25 502.75 L 257.277344 502.75 C 257.460938 502.75 259.878906 503.160156 260.585938 503.273438 C 281.789062 506.808594 285.503906 526.097656 297.199219 540.484375 C 298.113281 541.601562 298.84375 543.082031 300.1875 544.039062 C 301.828125 545.226562 302.992188 545.15625 304.769531 545.476562 C 310.675781 546.5 316.855469 545.566406 322.894531 545.929688 C 325.175781 546.066406 328.800781 546.59375 331.101562 547.027344 C 340.839844 548.871094 348.886719 556.328125 352.601562 565.449219 C 353.789062 568.367188 354.3125 571.671875 355.5 574.589844 C 357.070312 578.535156 360.949219 584.371094 365.050781 585.808594 C 369.15625 587.242188 374.71875 588.019531 379.234375 588.589844 C 379.871094 588.65625 380.234375 589.113281 380.828125 589.183594 C 383.335938 589.410156 388.125 588.636719 390.109375 589.183594 C 390.585938 589.320312 392.046875 591.324219 392.046875 591.597656 C 392.046875 591.691406 390.882812 592.875 390.65625 592.921875 C 389.308594 593.308594 381.625 593.101562 379.734375 592.964844 C 379.117188 592.921875 378.753906 592.441406 378.136719 592.375 C 366.511719 591.1875 353.515625 589.546875 346.742188 578.375 C 342.503906 571.398438 340.542969 561.777344 331.035156 559.632812 C 324.695312 558.199219 316.921875 559.453125 310.289062 559.042969 C 308.488281 558.925781 305.546875 558.289062 303.675781 557.992188 C 296.996094 556.964844 292.550781 553.957031 288.148438 548.917969 C 280.191406 539.796875 274.171875 521.375 265.214844 514.992188 C 261.15625 512.097656 253.449219 510.957031 248.59375 510.296875 C 248.320312 510.25 248.183594 509.816406 247.453125 509.816406 C 246.90625 509.816406 247.316406 510.457031 247.085938 511.117188 C 246.90625 511.640625 245.878906 513.738281 245.539062 513.945312 C 245.308594 514.082031 243.917969 514.605469 243.554688 514.695312 C 243.097656 514.808594 240.203125 513.761719 240.066406 513.625 C 239.972656 513.535156 240.066406 512.941406 239.792969 512.554688 C 239.359375 511.9375 237.992188 511.710938 237.308594 511.207031 C 236.097656 510.339844 234.433594 507.332031 233.726562 507.128906 C 231.789062 506.578125 229.964844 508.039062 228.027344 507.652344 C 231.332031 510.933594 229.988281 515.652344 230.191406 519.964844 C 231.402344 544.699219 230.808594 570.917969 229.691406 595.976562 C 229.097656 609.335938 228.574219 623.5625 227.457031 636.945312 C 227.34375 638.359375 227.777344 640.730469 227.457031 641.871094 C 227.117188 643.101562 226.089844 642.144531 225.292969 642.144531 C 225.542969 641.484375 224.746094 640.867188 224.746094 640.777344 C 224.746094 639.453125 225.0625 632.066406 224.746094 631.75 Z M 265.371094 485.261719 C 266.921875 485.671875 268.246094 484.875 269.453125 484.691406 C 296.355469 480.746094 329.597656 466.15625 352.328125 451.085938 C 360.949219 445.386719 373.167969 433.234375 374.671875 422.585938 C 375.242188 418.597656 374.195312 415.703125 370.910156 413.351562 C 368.789062 411.824219 366.898438 411.824219 364.59375 411.460938 C 363.820312 411.347656 363.433594 410.777344 362.40625 410.867188 C 359.785156 411.117188 355.773438 412.144531 353.195312 413.148438 C 325.222656 424.273438 303.8125 454.210938 281.742188 472.378906 C 278.117188 475.367188 274.582031 478.355469 270.820312 481.160156 C 269.019531 482.503906 266.761719 483.414062 265.351562 485.261719 Z M 223.808594 486.355469 C 222.03125 485.742188 219.75 484.554688 218.132812 483.550781 C 194.464844 468.847656 173.125 442.648438 147.453125 432.300781 C 141.9375 430.066406 137.101562 428.539062 131.199219 430.085938 C 128.894531 430.703125 127.6875 431.660156 125.953125 433.050781 C 125.566406 433.371094 124.996094 433.257812 124.90625 433.347656 C 124.792969 433.460938 124.953125 433.871094 124.816406 434.054688 C 123.378906 436.015625 123.445312 436.0625 123.171875 438.433594 C 123.148438 438.707031 122.601562 438.957031 122.71875 439.527344 C 122.761719 439.777344 123.128906 439.960938 123.171875 440.210938 C 123.5625 443.515625 125.429688 446.824219 127.597656 449.445312 C 142.1875 467.207031 173.558594 474.75 195.082031 480.40625 C 203.496094 482.617188 213.046875 485.332031 221.460938 486.835938 C 221.984375 486.925781 223.96875 487.335938 223.855469 486.355469 Z M 223.808594 486.355469 " fill-opacity="1" fill-rule="nonzero"/><path fill="#556b2f" d="M 555.175781 189.441406 C 555.175781 189.441406 556.042969 189.347656 556.5 189.484375 C 557.753906 189.851562 557.753906 192.929688 557.980469 194.023438 C 558.914062 198.558594 560.851562 203.121094 561.21875 207.746094 C 562.585938 225.234375 562.265625 242.722656 562.8125 260.277344 C 562.8125 260.894531 563.382812 261.28125 563.40625 261.875 C 564.457031 294.292969 564.820312 326.785156 565.59375 359.203125 C 565.710938 364.0625 566.121094 371.859375 565.09375 376.234375 C 564.980469 376.761719 565.09375 377.308594 564.980469 377.761719 C 564.867188 378.171875 563.65625 379.335938 563.109375 379.175781 C 561.492188 378.699219 561.945312 374.09375 561.765625 372.859375 C 561.148438 368.644531 560.554688 365.179688 560.125 360.824219 C 557.273438 332.1875 556.726562 302.796875 555.152344 273.910156 C 555.015625 271.472656 555.289062 268.964844 555.152344 266.503906 C 553.714844 267.253906 552.871094 268.828125 551.527344 269.714844 C 546.875 272.792969 539.445312 274.414062 534.109375 275.28125 C 525.308594 276.695312 516.828125 276.535156 507.820312 276.875 C 489.992188 277.558594 472.574219 278.925781 454.789062 276.375 C 450.640625 275.78125 442.820312 274.503906 439.035156 273 C 438.03125 272.613281 437.371094 271.949219 436.503906 271.425781 C 436.640625 279.15625 436.324219 286.953125 436.503906 294.683594 C 437.097656 323.089844 438.601562 351.589844 439.789062 379.972656 C 440.265625 391.304688 441.453125 403.253906 440.882812 414.402344 C 440.746094 417.09375 441.132812 418.777344 437.621094 418.503906 C 437.621094 417.480469 436.824219 416.363281 436.597656 415.425781 C 435.59375 411.414062 435.410156 406.945312 434.910156 402.886719 C 431.96875 378.582031 431.148438 353.734375 429.984375 329.0625 C 428.207031 291.488281 426.746094 252.617188 430.484375 215.316406 C 431.285156 207.382812 431.945312 199.152344 433.289062 191.332031 C 433.335938 191.035156 434.019531 190.625 433.792969 189.917969 C 436.550781 190.148438 434.726562 189.441406 435.113281 188.824219 C 436.070312 187.273438 437.441406 186.386719 438.167969 188.550781 C 439.742188 193.246094 447.015625 196.484375 451.644531 198.058594 C 472.847656 205.238281 504.242188 205.832031 525.945312 201.433594 C 531.394531 200.339844 543.777344 196.691406 548.289062 193.679688 C 549.066406 193.179688 551.824219 189.507812 552.460938 191.835938 C 552.757812 192.953125 552.304688 193.269531 551.914062 194 C 548.128906 201.183594 542.5 202.984375 535.316406 205.285156 C 518.035156 210.804688 498.585938 210.414062 480.597656 208.476562 C 469.679688 207.316406 444.757812 203.574219 437.371094 194.84375 C 437.121094 194.523438 436.753906 193.203125 436.277344 193.203125 C 435.160156 193.179688 435.570312 196.097656 435.480469 196.78125 C 434.566406 203.210938 434.453125 205.492188 434.933594 212.058594 C 436.09375 228.109375 435.296875 244.589844 436.003906 260.734375 C 436.027344 261.328125 436.003906 261.941406 436.824219 261.554688 C 437.78125 261.097656 439.195312 259.480469 440.175781 258.886719 C 445.625 255.558594 454.105469 254.351562 460.285156 253.277344 C 469.996094 251.636719 480.460938 250.40625 490.402344 250.039062 C 510.992188 249.265625 532.902344 249.015625 553.375 252.183594 C 556.40625 252.664062 554.628906 251.863281 554.742188 250.953125 C 555.929688 242.082031 554.402344 227.171875 554.148438 217.507812 C 553.945312 209.367188 553.261719 200.476562 554.105469 191.265625 C 554.148438 190.671875 554.8125 190.03125 554.675781 189.917969 C 554.515625 189.78125 553.421875 190.148438 553.011719 189.667969 L 551.34375 186.132812 C 543.503906 181.140625 534.019531 178.109375 524.875 176.238281 C 504.492188 172.066406 482.582031 172.570312 462.449219 178.382812 C 455.726562 179.636719 450.003906 183.625 443.9375 186.679688 C 440.425781 187.183594 439.148438 185.496094 439.855469 182.054688 C 440.289062 179.976562 444.554688 178.246094 446.171875 176.878906 C 470.589844 165.457031 501.710938 164.019531 527.589844 170.21875 C 535.019531 172 550.546875 176.992188 554.925781 183.351562 C 555.769531 184.582031 555.519531 185.816406 556.246094 186.976562 C 556.382812 187.660156 554.992188 189.210938 555.175781 189.371094 Z M 440.882812 266.523438 L 445.511719 267.640625 C 470.703125 271.039062 495.441406 270.285156 520.976562 268.691406 C 529.777344 268.144531 539.398438 267.871094 547.71875 264.269531 C 550.320312 263.152344 553.285156 260.621094 552.417969 257.519531 C 552.28125 257.015625 551.617188 256.742188 551.070312 256.675781 C 547.878906 256.242188 543.523438 256.835938 540.105469 256.699219 C 512.972656 255.71875 485.410156 255.511719 459.121094 260.4375 C 454.058594 261.394531 448.15625 262.375 443.414062 264.40625 C 442.890625 264.632812 440.402344 266.136719 440.882812 266.523438 Z M 440.882812 266.523438 " fill-opacity="1" fill-rule="nonzero"/><path fill="#556b2f" d="M 297.085938 119.445312 C 297.085938 119.445312 297.953125 119.355469 298.410156 119.492188 C 299.664062 119.855469 299.664062 122.933594 299.890625 124.027344 C 300.824219 128.566406 302.765625 133.125 303.128906 137.753906 C 304.496094 155.242188 304.175781 172.726562 304.722656 190.285156 C 304.722656 190.898438 305.292969 191.285156 305.316406 191.878906 C 306.367188 224.300781 306.730469 256.789062 307.507812 289.210938 C 307.621094 294.066406 308.03125 301.863281 307.003906 306.242188 C 306.890625 306.765625 307.003906 307.3125 306.890625 307.769531 C 306.777344 308.179688 305.566406 309.34375 305.019531 309.183594 C 303.402344 308.703125 303.859375 304.097656 303.675781 302.867188 C 303.058594 298.648438 302.46875 295.183594 302.035156 290.828125 C 299.183594 262.191406 298.636719 232.804688 297.0625 203.917969 C 296.925781 201.476562 297.199219 198.96875 297.0625 196.507812 C 295.628906 197.261719 294.785156 198.832031 293.4375 199.722656 C 288.789062 202.800781 281.355469 204.417969 276.019531 205.285156 C 267.21875 206.699219 258.738281 206.539062 249.730469 206.882812 C 231.902344 207.566406 214.484375 208.933594 196.699219 206.378906 C 192.550781 205.789062 184.730469 204.511719 180.945312 203.003906 C 179.945312 202.617188 179.28125 201.957031 178.414062 201.433594 C 178.550781 209.160156 178.234375 216.957031 178.414062 224.6875 C 179.007812 253.097656 180.511719 281.59375 181.699219 309.980469 C 182.179688 321.3125 183.363281 333.257812 182.792969 344.40625 C 182.65625 347.097656 183.042969 348.785156 179.53125 348.511719 C 179.53125 347.484375 178.734375 346.367188 178.507812 345.433594 C 177.503906 341.421875 177.320312 336.953125 176.820312 332.894531 C 173.878906 308.589844 173.058594 283.738281 171.894531 259.070312 C 170.117188 221.496094 168.65625 182.625 172.398438 145.324219 C 173.195312 137.390625 173.855469 129.160156 175.199219 121.339844 C 175.246094 121.042969 175.929688 120.632812 175.703125 119.925781 C 178.460938 120.152344 176.636719 119.445312 177.023438 118.832031 C 177.984375 117.28125 179.351562 116.390625 180.082031 118.558594 C 181.652344 123.253906 188.925781 126.492188 193.554688 128.0625 C 214.757812 135.246094 246.152344 135.839844 267.859375 131.4375 C 273.308594 130.34375 285.6875 126.695312 290.203125 123.6875 C 290.976562 123.183594 293.734375 119.515625 294.375 121.839844 C 294.671875 122.957031 294.214844 123.277344 293.828125 124.003906 C 290.042969 131.1875 284.410156 132.988281 277.226562 135.292969 C 259.945312 140.808594 240.5 140.421875 222.511719 138.484375 C 211.589844 137.320312 186.667969 133.582031 179.28125 124.847656 C 179.03125 124.53125 178.667969 123.207031 178.1875 123.207031 C 177.070312 123.183594 177.480469 126.101562 177.390625 126.789062 C 176.476562 133.21875 176.363281 135.496094 176.84375 142.0625 C 178.003906 158.113281 177.207031 174.597656 177.914062 190.738281 C 177.9375 191.332031 177.914062 191.949219 178.734375 191.558594 C 179.691406 191.105469 181.105469 189.484375 182.085938 188.894531 C 187.535156 185.5625 196.015625 184.355469 202.195312 183.285156 C 211.910156 181.644531 222.375 180.410156 232.3125 180.046875 C 252.902344 179.273438 274.8125 179.019531 295.285156 182.191406 C 298.316406 182.667969 296.539062 181.871094 296.652344 180.957031 C 297.839844 172.089844 296.3125 157.179688 296.0625 147.511719 C 295.855469 139.371094 295.171875 130.480469 296.015625 121.269531 C 296.0625 120.675781 296.722656 120.039062 296.585938 119.925781 C 296.425781 119.789062 295.332031 120.152344 294.921875 119.675781 L 293.257812 116.140625 C 285.414062 111.148438 275.929688 108.113281 266.785156 106.246094 C 246.402344 102.074219 224.492188 102.574219 204.363281 108.386719 C 197.636719 109.640625 191.914062 113.632812 185.847656 116.6875 C 182.335938 117.1875 181.0625 115.5 181.765625 112.058594 C 182.199219 109.984375 186.464844 108.25 188.082031 106.882812 C 212.5 95.460938 243.621094 94.023438 269.5 100.226562 C 276.933594 102.003906 292.457031 106.996094 296.835938 113.359375 C 297.679688 114.589844 297.429688 115.820312 298.160156 116.984375 C 298.296875 117.667969 296.90625 119.21875 297.085938 119.378906 Z M 182.792969 196.53125 L 187.421875 197.648438 C 212.613281 201.046875 237.351562 200.292969 262.886719 198.695312 C 271.6875 198.148438 281.308594 197.875 289.632812 194.273438 C 292.230469 193.15625 295.195312 190.625 294.328125 187.523438 C 294.191406 187.023438 293.53125 186.75 292.984375 186.679688 C 289.789062 186.25 285.4375 186.839844 282.015625 186.703125 C 254.886719 185.722656 227.320312 185.519531 201.03125 190.441406 C 195.972656 191.402344 190.066406 192.382812 185.324219 194.410156 C 184.800781 194.636719 182.316406 196.144531 182.792969 196.53125 Z M 182.792969 196.53125 " fill-opacity="1" fill-rule="nonzero"/><path fill="#556b2f" d="M 667.257812 124.347656 C 667.007812 124.597656 663.996094 125.214844 663.246094 125.535156 C 660.804688 126.582031 656.132812 128.65625 654.148438 130.09375 C 650.523438 132.714844 649.566406 139.53125 648.628906 143.703125 C 646.804688 151.660156 645.414062 159.871094 643.84375 167.894531 C 643.707031 168.53125 643.410156 171.726562 643.226562 171.90625 C 643.160156 171.976562 641.585938 172.453125 641.335938 172.476562 C 640.652344 172.546875 640.101562 172.523438 639.671875 171.929688 C 639.441406 171.609375 638.394531 170.082031 638.347656 169.96875 C 637.847656 168.238281 638.460938 163.996094 638.347656 161.785156 C 638.234375 160.050781 637.320312 156.996094 637.207031 155.265625 C 636.773438 148.628906 638.347656 140.761719 636.046875 134.539062 C 635.382812 132.738281 634.402344 131.097656 632.511719 130.414062 C 632.101562 130.253906 631.507812 130.414062 631.007812 130.296875 C 627.425781 129.546875 624.601562 130.117188 621.066406 129.84375 C 619.605469 129.730469 617.191406 128.976562 615.640625 128.703125 C 614.980469 128.589844 614.136719 128.886719 613.472656 128.703125 C 613.246094 128.632812 612.082031 127.472656 612.082031 127.378906 C 612.082031 127.289062 612.722656 126.101562 612.925781 126.011719 C 614.25 125.464844 615.9375 124.074219 616.757812 123.867188 C 620.472656 123.003906 624.417969 123.527344 628.132812 122.660156 C 631.03125 122 632.511719 117.78125 633.308594 115.273438 C 635.042969 109.824219 638.394531 98.746094 638.871094 93.476562 C 639.214844 89.648438 638.554688 85.359375 638.871094 81.460938 C 639.535156 80.4375 640.925781 79.273438 641.859375 80.597656 C 643.410156 82.785156 642.453125 87.867188 642.65625 90.742188 C 643 95.460938 644.847656 100.136719 644.847656 104.96875 C 645.871094 107.839844 645.1875 111.71875 646.761719 114.542969 C 647.375 115.660156 651.046875 118.558594 652.300781 118.851562 C 653.054688 119.011719 653.804688 118.785156 654.445312 118.875 C 657.25 119.378906 660.347656 120.222656 663.152344 120.5625 C 665.296875 120.8125 666.894531 119.675781 667.804688 122.5 C 667.828125 122.59375 667.324219 124.28125 667.257812 124.347656 Z M 653.601562 124.347656 C 649.609375 124.121094 645.734375 122.113281 643.820312 118.535156 L 641.015625 112.308594 C 639.851562 116.253906 638.574219 122.089844 635.019531 124.621094 C 634.539062 124.964844 633.902344 124.667969 633.902344 125.144531 C 634.792969 126.355469 637.183594 126.605469 638.027344 127.585938 C 638.597656 128.269531 640.878906 133.035156 641.3125 134.152344 C 642.40625 136.980469 642.886719 139.898438 642.65625 142.929688 L 643.683594 139.851562 C 644.730469 135.15625 645.277344 130.023438 649.199219 126.789062 L 653.578125 124.324219 Z M 642.65625 146.234375 C 642.65625 146.234375 642.726562 144.136719 642.65625 144.046875 C 641.90625 143.15625 641.90625 147.125 642.65625 146.234375 Z M 642.65625 146.234375 " fill-opacity="1" fill-rule="nonzero"/><path fill="#556b2f" d="M 449.386719 294.976562 C 451.824219 294.25 452.214844 299.21875 452.441406 300.632812 C 456.863281 327.582031 455.609375 357.152344 456.226562 384.898438 C 456.363281 390.597656 455.496094 398.167969 456.179688 403.527344 C 456.339844 404.824219 458.003906 408.382812 458.644531 409.820312 C 460.46875 413.921875 462.882812 418.597656 465.027344 422.585938 C 465.300781 423.089844 465.9375 423.453125 466.03125 423.773438 C 466.507812 425.34375 464.570312 426.621094 463.386719 424.777344 C 459.941406 419.554688 457.640625 413.261719 454.515625 407.949219 C 452.941406 405.28125 449.683594 402.113281 449.179688 399.082031 C 449.023438 398.144531 449.25 397.210938 449.136719 396.390625 C 448.132812 388.957031 447.769531 381.070312 447.996094 373.429688 C 448.222656 365.792969 448.863281 357.085938 449.113281 349.949219 C 449.546875 338.023438 448.246094 326.28125 447.972656 314.402344 C 447.835938 308.566406 448.109375 302.707031 447.972656 296.871094 C 447.90625 296.324219 448.976562 295.117188 449.363281 294.976562 Z M 449.386719 294.976562 " fill-opacity="1" fill-rule="nonzero"/><path fill="#556b2f" d="M 191.273438 224.984375 C 193.714844 224.253906 194.101562 229.226562 194.328125 230.636719 C 198.753906 257.585938 197.5 287.160156 198.113281 314.90625 C 198.25 320.605469 197.386719 328.175781 198.070312 333.53125 C 198.230469 334.832031 199.894531 338.386719 200.53125 339.824219 C 202.355469 343.929688 204.773438 348.601562 206.914062 352.59375 C 207.1875 353.09375 207.828125 353.457031 207.917969 353.777344 C 208.398438 355.351562 206.460938 356.628906 205.273438 354.78125 C 201.832031 349.558594 199.527344 343.269531 196.40625 337.957031 C 194.832031 335.289062 191.570312 332.117188 191.070312 329.085938 C 190.910156 328.152344 191.136719 327.21875 191.023438 326.394531 C 190.019531 318.964844 189.65625 311.074219 189.882812 303.4375 C 190.113281 295.800781 190.75 287.089844 191 279.953125 C 191.433594 268.03125 190.136719 256.289062 189.859375 244.410156 C 189.722656 238.574219 189.996094 232.714844 189.859375 226.875 C 189.792969 226.328125 190.863281 225.121094 191.25 224.984375 Z M 191.273438 224.984375 " fill-opacity="1" fill-rule="nonzero"/><path fill="#556b2f" d="M 361.0625 27.566406 C 361.222656 27.722656 360.96875 30.871094 361.0625 31.691406 C 361.382812 35.203125 361.585938 35.613281 361.0625 39.304688 C 360.902344 40.378906 361.90625 44.230469 362.15625 45.917969 C 362.726562 49.886719 363.617188 53.578125 364.300781 57.453125 C 364.777344 60.191406 364.070312 62.8125 367.832031 63.199219 C 372.257812 65.527344 376.816406 67.53125 381.855469 68.054688 C 382.722656 73.003906 378.320312 70.953125 374.992188 71.316406 C 373.988281 71.429688 372.210938 72.34375 371.207031 72.457031 C 368.222656 72.796875 365.917969 71.40625 364.414062 74.964844 C 363.820312 76.378906 362.816406 79.980469 362.679688 81.4375 C 361.972656 88.667969 362.453125 96.097656 362.179688 103.351562 C 362.042969 106.792969 361.449219 110.507812 360.992188 114.203125 C 360.628906 117.28125 359.988281 121.359375 359.96875 124.667969 C 359.96875 125.511719 360.46875 126.832031 359.148438 126.582031 C 357.757812 125.488281 358.484375 123.574219 358.257812 122 C 358.144531 121.15625 357.300781 119.539062 357.207031 118.671875 C 356.84375 115.386719 356.867188 111.535156 356.660156 108.273438 C 356.25 101.84375 355.089844 96.03125 354.472656 89.691406 C 354.199219 86.910156 354.722656 83.71875 354.519531 80.914062 C 354.40625 79.296875 353.605469 76.628906 353.378906 74.941406 C 353.105469 72.820312 353.765625 70.289062 351.234375 68.878906 C 350.984375 68.738281 349.410156 68.171875 349.296875 68.171875 C 349.136719 68.171875 348.773438 68.648438 348.203125 68.648438 C 345.351562 68.648438 342.570312 68.535156 339.996094 68.648438 C 336.941406 68.761719 334.867188 69.308594 335.320312 65.640625 C 335.390625 65.113281 335.617188 65.503906 336.074219 65.296875 C 336.621094 65.046875 337.375 64.429688 337.851562 64.316406 C 340.863281 63.609375 343.140625 63.0625 346.082031 62.152344 C 348.15625 61.511719 351.851562 60.691406 353.605469 59.824219 C 353.972656 59.644531 355.679688 58.023438 355.863281 57.707031 C 356.136719 57.203125 357.164062 54.171875 357.230469 53.601562 C 357.460938 51.777344 356.777344 49.886719 356.777344 48.652344 C 356.777344 45.417969 358.484375 42.863281 358.324219 38.804688 C 358.1875 35.519531 358.257812 33.011719 358.871094 29.546875 C 358.964844 29.023438 358.714844 27.769531 358.871094 27.609375 C 358.941406 27.542969 360.992188 27.542969 361.0625 27.609375 Z M 359.421875 75.421875 C 359.898438 77.539062 359.078125 81.050781 359.421875 83.355469 C 361.246094 83.8125 360.421875 81.507812 360.445312 80.414062 C 360.445312 79.683594 360.515625 79.410156 360.539062 78.726562 C 360.628906 76.332031 360.765625 73.414062 361.675781 71.132812 C 363.089844 67.644531 365.574219 69.699219 367.082031 66.960938 C 364.550781 66.1875 361.335938 65.070312 361.0625 62.039062 C 359.832031 62.699219 359.535156 64.179688 358.324219 65.046875 C 357.757812 65.457031 355.589844 66.140625 355.589844 66.6875 C 355.589844 66.917969 357.367188 69.21875 357.710938 70.039062 C 358.234375 71.386719 358.121094 72.570312 358.394531 73.734375 C 358.507812 74.257812 359.375 75.167969 359.421875 75.421875 Z M 359.421875 75.421875 " fill-opacity="1" fill-rule="nonzero"/><path fill="#556b2f" d="M 254.429688 426.757812 C 254.429688 426.757812 253.90625 425.117188 253.859375 424.867188 C 253.675781 423.542969 254.613281 419.347656 255.042969 417.796875 C 258.941406 403.160156 274.675781 379.269531 283.679688 366.589844 C 287.648438 361.003906 294.101562 354.28125 297.382812 348.578125 C 297.839844 347.78125 298.226562 346.050781 298.683594 344.953125 C 299.023438 344.132812 298.683594 343.746094 300.097656 344.203125 C 301.601562 344.660156 300.550781 346.164062 300.4375 346.734375 C 297.929688 358.132812 292.457031 365.746094 286.4375 375.367188 C 278.230469 388.523438 269.773438 401.542969 262.179688 415.085938 C 260.152344 418.710938 258.328125 422.542969 256.390625 426.234375 C 256.117188 426.851562 254.632812 426.941406 254.476562 426.78125 Z M 254.429688 426.757812 " fill-opacity="1" fill-rule="nonzero"/><path fill="#556b2f" d="M 512.519531 496.753906 C 512.519531 496.753906 511.992188 495.113281 511.949219 494.859375 C 511.765625 493.539062 512.699219 489.34375 513.132812 487.792969 C 517.03125 473.15625 532.765625 449.261719 541.769531 436.585938 C 545.738281 431 552.1875 424.273438 555.472656 418.574219 C 555.929688 417.777344 556.316406 416.042969 556.773438 414.949219 C 557.113281 414.128906 556.773438 413.742188 558.183594 414.195312 C 559.691406 414.652344 558.640625 416.15625 558.527344 416.726562 C 556.019531 428.125 550.546875 435.742188 544.527344 445.363281 C 536.320312 458.519531 527.863281 471.535156 520.269531 485.078125 C 518.242188 488.703125 516.417969 492.535156 514.480469 496.230469 C 514.207031 496.84375 512.722656 496.933594 512.5625 496.777344 Z M 512.519531 496.753906 " fill-opacity="1" fill-rule="nonzero"/><path fill="#556b2f" d="M 226.546875 425.117188 C 226.75 424.089844 225.839844 423.839844 225.496094 423.132812 C 223.921875 419.851562 222.691406 416.15625 221.003906 412.875 C 214.757812 400.859375 205.660156 390.667969 197.292969 380.269531 C 191.820312 373.453125 184.070312 365.359375 181.996094 356.765625 C 181.8125 356.035156 181.699219 355.375 182.542969 355.125 C 183.75 354.78125 185.371094 356.742188 186.097656 357.5625 C 193.03125 365.246094 199.597656 373.839844 206.046875 381.914062 C 214.484375 392.46875 224.46875 403.320312 228.164062 416.683594 C 228.4375 417.683594 227.570312 418.164062 227.683594 418.734375 L 229.234375 423.179688 C 228.527344 424.457031 228.300781 425.414062 226.566406 425.09375 Z M 226.546875 425.117188 " fill-opacity="1" fill-rule="nonzero"/><path fill="#556b2f" d="M 484.632812 495.113281 C 484.839844 494.085938 483.925781 493.835938 483.585938 493.128906 C 482.011719 489.84375 480.78125 486.152344 479.09375 482.867188 C 472.847656 470.851562 463.75 460.660156 455.382812 450.265625 C 449.910156 443.449219 442.160156 435.355469 440.085938 426.757812 C 439.902344 426.03125 439.789062 425.367188 440.632812 425.117188 C 441.839844 424.777344 443.457031 426.734375 444.1875 427.558594 C 451.121094 435.242188 457.6875 443.835938 464.136719 451.90625 C 472.574219 462.460938 482.558594 473.316406 486.253906 486.675781 C 486.527344 487.679688 485.660156 488.15625 485.773438 488.726562 L 487.324219 493.171875 C 486.617188 494.449219 486.390625 495.40625 484.65625 495.089844 Z M 484.632812 495.113281 " fill-opacity="1" fill-rule="nonzero"/><path fill="#556b2f" d="M 205.5 231.550781 C 206.253906 231.324219 207.714844 231.550781 207.941406 232.347656 C 208.191406 233.261719 207.441406 233.785156 207.371094 234.515625 C 207.121094 237.046875 207.644531 239.734375 207.917969 242.199219 C 210.472656 265.019531 208.351562 288.117188 209.058594 311.644531 C 208.601562 313.402344 207.851562 317.230469 206.300781 313.8125 C 206.117188 307.609375 206.574219 301.386719 206.324219 295.183594 C 206.300781 294.566406 205.773438 294.203125 205.730469 293.585938 C 204.953125 277.71875 205 261.804688 204.132812 245.984375 C 204.089844 245.367188 203.5625 244.980469 203.539062 244.386719 C 203.449219 241.902344 203.152344 236.132812 203.609375 234.035156 C 203.722656 233.488281 204.976562 231.6875 205.5 231.550781 Z M 205.5 231.550781 " fill-opacity="1" fill-rule="nonzero"/><path fill="#556b2f" d="M 229.804688 430.042969 L 231.46875 436.3125 C 233.453125 447.6875 233.476562 462.894531 231.972656 474.59375 C 231.742188 476.347656 232.472656 477.328125 232.5625 478.421875 C 232.65625 479.765625 232.722656 482.117188 232.5625 483.371094 C 232.382812 484.785156 230.695312 485.238281 230.375 484.441406 C 230.238281 484.121094 229.988281 483.53125 229.941406 483.347656 C 229.601562 481.820312 229.53125 478.445312 229.257812 476.257812 C 228.140625 467.480469 226.179688 460.296875 226.523438 451.0625 C 226.523438 450.449219 227.09375 450.058594 227.117188 449.46875 C 227.273438 443.972656 226.476562 437.15625 227.070312 431.933594 C 227.09375 431.683594 227.570312 430.109375 227.640625 430.042969 C 227.777344 429.90625 229.28125 430.109375 229.828125 430.042969 Z M 229.804688 430.042969 " fill-opacity="1" fill-rule="nonzero"/><path fill="#556b2f" d="M 487.917969 500.035156 L 489.582031 506.304688 C 491.566406 517.683594 491.589844 532.890625 490.082031 544.585938 C 489.855469 546.339844 490.585938 547.320312 490.675781 548.417969 C 490.765625 549.761719 490.835938 552.109375 490.675781 553.363281 C 490.492188 554.777344 488.808594 555.234375 488.488281 554.433594 C 488.351562 554.117188 488.101562 553.523438 488.054688 553.339844 C 487.710938 551.8125 487.644531 548.4375 487.371094 546.25 C 486.253906 537.472656 484.292969 530.289062 484.632812 521.058594 C 484.632812 520.441406 485.203125 520.054688 485.226562 519.460938 C 485.386719 513.964844 484.589844 507.148438 485.179688 501.929688 C 485.203125 501.675781 485.683594 500.105469 485.75 500.035156 C 485.886719 499.898438 487.394531 500.105469 487.941406 500.035156 Z M 487.917969 500.035156 " fill-opacity="1" fill-rule="nonzero"/><path fill="#556b2f" d="M 256.59375 435.515625 C 256.59375 435.515625 257.140625 437.132812 257.1875 437.382812 C 257.644531 441.375 257.394531 448.554688 257.1875 452.726562 C 256.9375 457.835938 255.386719 463.167969 254.953125 468.003906 C 254.839844 469.300781 255.25 471.261719 254.953125 472.359375 C 254.542969 473.769531 252.46875 474.683594 252.242188 471.855469 C 252.082031 469.894531 252.421875 467.753906 252.242188 465.8125 C 252.195312 465.199219 251.714844 464.835938 251.648438 464.21875 C 250.828125 456.054688 250.894531 446.617188 252.261719 438.546875 C 252.398438 437.726562 253.335938 436.472656 253.3125 435.492188 C 254.042969 435.671875 254.359375 435.058594 254.703125 434.945312 C 254.792969 434.921875 256.480469 435.421875 256.550781 435.492188 Z M 256.59375 435.515625 " fill-opacity="1" fill-rule="nonzero"/><path fill="#556b2f" d="M 514.707031 505.507812 C 514.707031 505.507812 515.253906 507.125 515.300781 507.378906 C 515.753906 511.367188 515.503906 518.550781 515.300781 522.722656 C 515.050781 527.828125 513.5 533.164062 513.066406 537.996094 C 512.953125 539.296875 513.363281 541.257812 513.066406 542.351562 C 512.65625 543.765625 510.582031 544.675781 510.351562 541.851562 C 510.148438 539.34375 510.148438 537.199219 509.875 534.667969 C 508.960938 526.300781 509.007812 516.792969 510.421875 508.539062 C 510.558594 507.71875 511.492188 506.464844 511.46875 505.484375 C 512.199219 505.667969 512.519531 505.050781 512.859375 504.9375 C 512.953125 504.914062 514.636719 505.417969 514.707031 505.484375 Z M 514.707031 505.507812 " fill-opacity="1" fill-rule="nonzero"/><path fill="#556b2f" d="M 464.957031 339.800781 C 464.820312 339.960938 463.773438 339.800781 463.316406 339.527344 C 462.3125 338.890625 462.929688 336.882812 462.792969 335.675781 C 461.5625 325.507812 459.738281 315.316406 460.605469 305.101562 C 460.785156 302.933594 459.761719 297.941406 463.042969 298.238281 C 465.640625 298.46875 463.773438 301.132812 463.886719 301.726562 C 463.933594 301.976562 464.296875 302.160156 464.34375 302.410156 C 466.644531 313.539062 465.003906 325.371094 465.503906 336.816406 C 464.867188 337.476562 465.050781 339.6875 464.9375 339.800781 Z M 464.957031 339.800781 " fill-opacity="1" fill-rule="nonzero"/><path fill="#556b2f" d="M 628.453125 274.183594 C 627.128906 272.089844 629.84375 270.582031 632.03125 270.878906 C 632.601562 270.972656 632.898438 271.3125 633.171875 271.382812 C 634.128906 271.585938 635.292969 271.519531 636.136719 272.246094 C 636.273438 272.363281 637.6875 274.367188 637.710938 274.503906 C 637.960938 275.394531 637.9375 283.191406 637.710938 284.261719 C 637.390625 285.765625 634.519531 288.046875 633.058594 288.367188 C 630.09375 289.003906 625.582031 287.726562 623.800781 285.152344 C 623.4375 284.605469 622.617188 282.667969 622.503906 282.074219 C 621.886719 278.496094 624.621094 273.910156 628.453125 274.207031 Z M 632.832031 284.035156 C 632.832031 284.035156 633.378906 282.394531 633.402344 282.140625 C 633.515625 281.160156 633.558594 277.46875 633.355469 276.695312 C 633.285156 276.441406 631.691406 274.847656 631.441406 274.777344 C 631.03125 274.664062 629.089844 274.664062 629.023438 274.753906 C 628.910156 274.871094 628.613281 277.011719 628.382812 277.671875 C 627.996094 278.8125 626.972656 279.519531 627.402344 281.003906 C 627.519531 281.367188 628.042969 281.550781 628.203125 281.847656 C 628.453125 282.277344 628.429688 282.847656 628.5 282.917969 C 628.566406 282.984375 629.136719 282.964844 629.570312 283.214844 C 629.84375 283.375 630.027344 283.898438 630.414062 284.011719 C 630.800781 284.125 632.738281 284.125 632.832031 284.058594 Z M 632.832031 284.035156 " fill-opacity="1" fill-rule="nonzero"/><path fill="#556b2f" d="M 564.476562 382.460938 L 566.140625 388.183594 C 566.097656 395.523438 564.820312 402.476562 561.195312 408.976562 L 559.851562 410.34375 C 558.027344 408.609375 559.894531 406.375 559.597656 404.027344 C 558.914062 398.691406 560.328125 393.015625 561.242188 387.65625 C 561.582031 385.695312 561.605469 385.582031 562.242188 383.738281 C 562.402344 383.257812 562.242188 382.550781 562.335938 382.460938 C 562.449219 382.324219 564 382.527344 564.523438 382.460938 Z M 564.476562 382.460938 " fill-opacity="1" fill-rule="nonzero"/><path fill="#556b2f" d="M 306.367188 312.464844 L 308.03125 318.1875 C 307.984375 325.53125 306.707031 332.484375 303.082031 338.980469 L 301.738281 340.347656 C 299.914062 338.617188 301.785156 336.382812 301.488281 334.035156 C 300.804688 328.699219 302.214844 323.023438 303.128906 317.664062 C 303.46875 315.703125 303.492188 315.589844 304.132812 313.742188 C 304.292969 313.261719 304.132812 312.558594 304.222656 312.464844 C 304.335938 312.328125 305.886719 312.535156 306.410156 312.464844 Z M 306.367188 312.464844 " fill-opacity="1" fill-rule="nonzero"/><path fill="#556b2f" d="M 179.53125 30.871094 C 179.53125 30.871094 180.21875 30.894531 180.605469 30.574219 C 181.0625 30.210938 181.5625 29.367188 182.019531 29.230469 C 182.472656 29.09375 183.019531 29.230469 183.546875 29.113281 C 184.980469 28.773438 185.117188 28.203125 186.828125 29.25 C 189.996094 31.167969 191.367188 36.363281 189.632812 39.578125 C 188.355469 41.972656 185.757812 43.25 183.042969 42.863281 C 182.589844 42.792969 180.582031 41.539062 180.308594 41.222656 C 179.667969 40.46875 178.507812 38.074219 178.394531 37.117188 C 178.277344 36.25 178.277344 34.128906 178.460938 33.332031 C 178.484375 33.195312 179.441406 30.9375 179.53125 30.847656 Z M 183.886719 38.507812 C 184.527344 38.554688 184.9375 38.597656 185.527344 38.234375 C 185.804688 38.074219 187.648438 35.636719 187.695312 35.453125 C 187.808594 35.042969 186.28125 32.101562 185.78125 31.964844 C 184.960938 31.738281 183.707031 32.054688 182.792969 31.964844 C 183.089844 33.105469 181.996094 33.902344 182.292969 34.929688 C 182.632812 36.207031 183.660156 37.230469 183.886719 38.53125 Z M 183.886719 38.507812 " fill-opacity="1" fill-rule="nonzero"/><path fill="#556b2f" d="M 595.417969 225.578125 C 597.171875 225.191406 600.570312 226.238281 601.070312 228.015625 C 601.230469 228.609375 601.230469 232.28125 601.070312 232.871094 C 600.523438 234.765625 595.941406 235.242188 594.300781 234.789062 C 594.046875 234.71875 591.90625 232.578125 591.835938 232.324219 C 591.128906 229.839844 592.839844 226.125 595.417969 225.578125 Z M 595.417969 225.578125 " fill-opacity="1" fill-rule="nonzero"/><path fill="#556b2f" d="M 563.132812 57.660156 C 564.089844 57.339844 565.457031 59.757812 565.59375 60.644531 C 565.777344 62.039062 565.6875 64.660156 565.59375 66.164062 C 565.550781 66.78125 565.046875 67.144531 565.003906 67.761719 C 564.886719 69.742188 565.183594 71.816406 565.003906 73.800781 C 564.957031 74.460938 565.003906 75.488281 564.179688 75.714844 C 561.515625 76.492188 562.449219 72.480469 562.289062 71.042969 C 562.0625 69.128906 560.808594 66.503906 560.601562 65.070312 C 560.261719 62.628906 560.464844 58.550781 563.109375 57.683594 Z M 563.132812 57.660156 " fill-opacity="1" fill-rule="nonzero"/><path fill="#556b2f" d="M 560.945312 88.300781 C 561.515625 88.140625 562.3125 88.210938 562.835938 88.554688 C 564.433594 89.535156 563.769531 90.902344 563.90625 92.40625 C 563.953125 93 564.386719 93.296875 564.433594 93.570312 C 564.523438 94.09375 563.476562 97.992188 563.359375 98.949219 C 563.246094 99.90625 563.613281 101.34375 563.359375 102.234375 C 563.269531 102.597656 561.582031 103.601562 561.46875 103.601562 C 561.378906 103.601562 560.191406 102.4375 560.144531 102.210938 C 559.851562 101.207031 560.261719 99.542969 560.144531 98.402344 C 560.078125 97.765625 559.597656 97.398438 559.554688 96.804688 C 559.460938 95.394531 559.300781 90.742188 559.597656 89.714844 C 559.667969 89.488281 560.738281 88.394531 560.945312 88.347656 Z M 560.945312 88.300781 " fill-opacity="1" fill-rule="nonzero"/><path fill="#556b2f" d="M 556.816406 80.070312 C 556.566406 80.890625 557.546875 81.347656 557.363281 81.941406 C 556.75 83.992188 553.261719 83.171875 551.617188 83.308594 C 549.542969 83.492188 547.515625 84.222656 545.054688 83.902344 C 541.976562 83.492188 541.929688 80.140625 544.003906 79.546875 C 544.960938 79.273438 548.722656 79.410156 550 79.5 C 550.617188 79.546875 550.980469 80.046875 551.597656 80.09375 C 553.285156 80.230469 555.105469 79.957031 556.816406 80.09375 Z M 556.816406 80.070312 " fill-opacity="1" fill-rule="nonzero"/><path fill="#556b2f" d="M 569.675781 82.808594 C 568.21875 82.417969 568.945312 79.933594 570.269531 79.570312 C 570.726562 79.433594 571.273438 79.570312 571.796875 79.457031 C 573.371094 79.089844 574.488281 78.773438 576.265625 78.953125 C 576.878906 79.023438 577.269531 79.5 577.859375 79.546875 C 579.183594 79.636719 584.769531 78.863281 584.152344 80.890625 C 584.0625 81.1875 583.355469 81.460938 583.605469 82.261719 C 582.625 82.304688 581.644531 82.191406 580.644531 82.304688 C 580.300781 82.351562 580.140625 82.808594 580.050781 82.808594 C 577.632812 82.808594 571.453125 83.285156 569.652344 82.808594 Z M 569.675781 82.808594 " fill-opacity="1" fill-rule="nonzero"/><path fill="#556b2f" d="M 471.25 434.964844 C 472.34375 434.648438 474.511719 436.835938 475.082031 437.679688 C 475.695312 438.59375 475.71875 439.6875 476.152344 440.4375 C 476.585938 441.191406 478.84375 442.96875 479.140625 444.019531 C 479.9375 446.800781 477.316406 448.097656 476.472656 446.136719 C 476.335938 445.84375 476.472656 445.339844 476.175781 444.792969 C 475.128906 442.855469 469.222656 439.457031 469.90625 436.925781 C 469.996094 436.585938 470.910156 435.082031 471.25 434.988281 Z M 471.25 434.964844 " fill-opacity="1" fill-rule="nonzero"/><path fill="#556b2f" d="M 213.140625 364.972656 C 214.234375 364.652344 216.398438 366.84375 216.96875 367.6875 C 217.585938 368.597656 217.609375 369.691406 218.042969 370.445312 C 218.472656 371.195312 220.730469 372.976562 221.027344 374.023438 C 221.824219 376.804688 219.203125 378.105469 218.359375 376.144531 C 218.222656 375.847656 218.359375 375.347656 218.0625 374.800781 C 217.015625 372.859375 211.109375 369.464844 211.792969 366.933594 C 211.886719 366.589844 212.796875 365.085938 213.140625 364.996094 Z M 213.140625 364.972656 " fill-opacity="1" fill-rule="nonzero"/><path fill="#556b2f" d="M 268.929688 0.796875 C 271.367188 0.0898438 272.441406 2.734375 271.847656 4.8125 C 270.914062 5.859375 271.164062 10.257812 270 10.625 C 269.042969 10.921875 268.882812 9.828125 268.632812 9.257812 C 268.015625 7.820312 268.292969 7.183594 268.109375 5.949219 C 267.925781 4.71875 267.128906 3.738281 267.585938 2.164062 C 267.652344 1.9375 268.722656 0.84375 268.929688 0.796875 Z M 268.929688 0.796875 " fill-opacity="1" fill-rule="nonzero"/><path fill="#556b2f" d="M 256.414062 13.382812 C 258.054688 14.410156 260.265625 13.496094 261.769531 13.929688 C 262.179688 14.042969 263.34375 15.277344 263.160156 15.800781 C 262.476562 17.964844 258.921875 16.644531 257.414062 17.625 C 256.09375 16.871094 252.101562 17.078125 252.765625 14.726562 C 253.128906 13.453125 255.59375 14.296875 256.390625 13.40625 Z M 256.414062 13.382812 " fill-opacity="1" fill-rule="nonzero"/><path fill="#556b2f" d="M 283.40625 16.097656 C 283.40625 16.097656 283.476562 18.195312 283.40625 18.285156 C 283.339844 18.355469 281.765625 18.832031 281.515625 18.855469 C 279.917969 19.039062 274.058594 19.128906 273.558594 17.464844 C 273.101562 15.980469 276.226562 15.433594 277.113281 15.117188 C 278.390625 15.980469 280.054688 15.367188 281.515625 15.527344 C 281.765625 15.550781 283.339844 16.027344 283.40625 16.097656 Z M 283.40625 16.097656 " fill-opacity="1" fill-rule="nonzero"/><path fill="#556b2f" d="M 206.871094 6.816406 C 206.871094 6.816406 208.898438 6.15625 209.285156 6.269531 C 209.925781 6.453125 211.976562 9.097656 211.75 9.757812 C 211.632812 10.121094 210.746094 11.605469 210.378906 11.695312 C 209.21875 12.039062 206.617188 10.808594 206.324219 9.78125 C 206.164062 9.234375 206.640625 7.023438 206.871094 6.816406 Z M 206.871094 6.816406 " fill-opacity="1" fill-rule="nonzero"/><path fill="#556b2f" d="M 270.273438 27.015625 C 270.273438 27.015625 269.179688 26.878906 268.90625 27.566406 C 267.949219 27.542969 267.628906 23.390625 267.46875 22.433594 C 267.425781 22.183594 267.039062 21.910156 266.96875 21.292969 C 266.761719 19.492188 268.359375 18.742188 269.726562 19.628906 C 270 19.8125 270.730469 21.566406 270.800781 21.886719 C 270.914062 22.410156 270.296875 22.800781 270.25 23.4375 C 270.207031 24.191406 270.410156 26.835938 270.25 27.015625 Z M 270.273438 27.015625 " fill-opacity="1" fill-rule="nonzero"/><path fill="#556b2f" d="M 127.550781 100.292969 C 124.472656 100.589844 125.246094 99.746094 124.835938 97.808594 C 124.65625 97.011719 124.175781 96.648438 124.265625 95.644531 C 124.449219 93.410156 127.664062 94.183594 128.097656 95.6875 C 128.257812 96.214844 127.527344 96.648438 127.527344 97.285156 C 127.527344 97.832031 128.007812 98.175781 128.007812 98.378906 C 128.007812 98.605469 127.230469 99.496094 127.574219 100.292969 Z M 127.550781 100.292969 " fill-opacity="1" fill-rule="nonzero"/><path fill="#556b2f" d="M 127.574219 112.878906 C 127.027344 113.425781 125.089844 112.242188 124.882812 111.488281 C 124.65625 110.644531 124.632812 107.726562 125.679688 107.429688 C 127.890625 106.792969 127.480469 109.277344 127.574219 110.441406 C 127.617188 110.894531 127.871094 111.167969 127.890625 111.261719 C 127.890625 111.625 127.664062 112.835938 127.597656 112.878906 Z M 127.574219 112.878906 " fill-opacity="1" fill-rule="nonzero"/><path fill="#556b2f" d="M 122.648438 103.578125 C 122.855469 103.761719 122.191406 106.199219 122.101562 106.3125 C 121.941406 106.472656 118.042969 106.609375 117.722656 105.492188 C 117.472656 104.648438 119.546875 103.257812 120.230469 103.074219 C 120.640625 102.960938 122.558594 103.507812 122.648438 103.601562 Z M 122.648438 103.578125 " fill-opacity="1" fill-rule="nonzero"/><path fill="#556b2f" d="M 129.214844 106.3125 C 129.214844 106.3125 129.125 104.742188 129.214844 104.398438 C 129.535156 103.210938 133.183594 103.167969 133.570312 104.398438 C 134.027344 105.859375 129.714844 106.839844 129.191406 106.3125 Z M 129.214844 106.3125 " fill-opacity="1" fill-rule="nonzero"/></svg>