<svg xmlns="http://www.w3.org/2000/svg" xmlns:xlink="http://www.w3.org/1999/xlink" width="1024" zoomAndPan="magnify" viewBox="0 0 768 767.999994" height="1024" preserveAspectRatio="xMidYMid meet" version="1.0"><defs><clipPath id="63b763719d"><path d="M 310 52.535156 L 418 52.535156 L 418 159 L 310 159 Z M 310 52.535156 " clip-rule="nonzero"/></clipPath><clipPath id="95d8257472"><path d="M 58.335938 185 L 709.335938 185 L 709.335938 715.535156 L 58.335938 715.535156 Z M 58.335938 185 " clip-rule="nonzero"/></clipPath></defs><g clip-path="url(#63b763719d)"><path fill="#b1c29d" d="M 371.230469 64.058594 C 362.59375 73.691406 363.238281 83.074219 361.5625 80.320312 C 347.296875 57.101562 310.007812 62.65625 310.871094 93.546875 C 311.570312 119.191406 334.230469 136.890625 357.164062 146.992188 C 382.042969 157.964844 387.035156 162.300781 390.480469 154.753906 C 405.800781 121.230469 415.90625 109.164062 417.273438 83.683594 C 418.890625 54.15625 391.394531 41.523438 371.230469 64.058594 Z M 400.09375 110.941406 C 398.871094 113.703125 383.640625 146.777344 381.386719 145.894531 C 268.960938 100.484375 346.492188 46.503906 359.335938 97.066406 C 360.269531 100.65625 367.960938 102.269531 369.347656 94.855469 C 378.476562 46.285156 423.78125 57.410156 400.09375 110.9375 Z M 400.09375 110.941406 " fill-opacity="1" fill-rule="nonzero"/></g><path fill="#b1c29d" d="M 570.039062 154.269531 C 565.308594 138.417969 544.046875 132.160156 524.84375 152.023438 C 522.378906 154.589844 524.992188 143.175781 517.746094 133.101562 C 496.097656 103.085938 453.703125 131.238281 470.949219 180.417969 C 478.769531 202.664062 482.667969 212.28125 485.652344 225.832031 C 487 232.03125 489.566406 236.988281 496.398438 232.714844 C 528.597656 212.578125 580.800781 190.355469 570.042969 154.273438 Z M 559.871094 165.355469 C 558.484375 190.980469 495.296875 220.257812 494.941406 218.800781 C 489.9375 197.324219 465.492188 154.167969 486.425781 136.171875 C 493.96875 129.707031 516.730469 129.851562 514.351562 167.980469 C 513.957031 174.40625 520.53125 176.21875 523.226562 172.003906 C 542.363281 141.839844 560.847656 147.265625 559.871094 165.355469 Z M 559.871094 165.355469 " fill-opacity="1" fill-rule="nonzero"/><g clip-path="url(#95d8257472)"><path fill="#556b2f" d="M 707.585938 472.847656 C 691.519531 352.695312 570.183594 272.800781 451.523438 309.316406 C 381.605469 330.835938 363.023438 371.734375 357.863281 368.113281 C 330.007812 349.105469 316.597656 347.765625 319.371094 345.847656 C 336.8125 333.359375 346.816406 325.113281 411.414062 272.871094 C 415.171875 269.804688 413.878906 269.941406 390.714844 214.015625 C 389.296875 210.621094 387.621094 208.769531 385.699219 208.425781 C 309.828125 195.523438 265.171875 188.011719 251.730469 185.894531 C 244.902344 184.796875 210.351562 220.699219 206.140625 225.160156 C 203.785156 227.621094 203.621094 230.710938 205.636719 234.433594 C 254.371094 324.5 265.980469 334.675781 261.71875 334.328125 C 160.761719 327.894531 71.519531 398.535156 59.839844 500.96875 C 39.171875 682.027344 253.664062 786.625 384.90625 659.179688 C 388.4375 655.648438 428.160156 698.996094 507.753906 701.28125 C 621.0625 704.632812 725.042969 603.148438 707.582031 472.84375 Z M 394.378906 273.628906 C 279.054688 364.726562 287.015625 369.960938 353.441406 264.105469 C 354.234375 262.839844 353.617188 263.449219 393.785156 271.203125 C 394.933594 271.425781 395.289062 272.90625 394.378906 273.628906 Z M 294.464844 339.417969 C 293.8125 340.46875 293.160156 340.085938 287.273438 338.859375 C 285.691406 338.53125 286.234375 338.925781 278.882812 249.675781 C 278.675781 247.152344 276.484375 247.429688 341.742188 260.421875 C 344.457031 260.960938 345.769531 256.714844 294.464844 339.421875 Z M 383.523438 225.449219 C 399.996094 262.71875 400.417969 262.363281 398.691406 262.035156 C 359.460938 254.644531 360.433594 254.851562 361.296875 253.695312 C 383.488281 224.011719 382.890625 224.015625 383.523438 225.449219 Z M 334.914062 209.921875 C 377.566406 217.527344 376.78125 216.980469 375.832031 218.335938 C 355.132812 247.777344 355.804688 247.851562 354.96875 246.4375 C 333.53125 210.3125 332.679688 209.523438 334.914062 209.921875 Z M 324.742188 216.589844 C 346.480469 249.917969 348.195312 251.828125 345.515625 251.328125 C 286.140625 240.121094 285.183594 239.785156 286.71875 238.785156 C 323.507812 214.664062 323.226562 214.265625 324.742188 216.589844 Z M 261.539062 197.523438 C 317.011719 206.886719 319.4375 206.476562 316.816406 208.144531 C 272.964844 236.078125 275.664062 235.210938 275.125 233.914062 C 259.964844 197.527344 259.484375 197.175781 261.539062 197.523438 Z M 220.984375 225.757812 C 250.320312 196.859375 248.988281 198.148438 249.429688 199.214844 C 264.859375 236.378906 265.441406 235.488281 264.003906 235.226562 C 218.511719 226.894531 219.929688 226.789062 220.984375 225.757812 Z M 218.519531 237.328125 C 217.4375 235.414062 217.46875 235.011719 268.40625 246.0625 C 269.230469 246.242188 269.265625 246.003906 276.3125 334.820312 C 276.671875 339.363281 271.738281 331.601562 218.519531 237.332031 Z M 376.515625 652.929688 C 275.980469 741.949219 149.898438 706.761719 96.269531 619.234375 C 43.839844 533.664062 67.347656 414.890625 167.789062 363.839844 C 282.121094 305.695312 417.441406 384.191406 427.375 509.828125 C 431.601562 563.246094 407.257812 613.734375 404.371094 610.375 C 387.90625 591.203125 385.855469 590.242188 387.53125 585.878906 C 449.382812 425.171875 276.152344 317.90625 162.453125 397.226562 C 78.269531 455.980469 71.296875 578.074219 154.527344 645.46875 C 209.078125 689.625 299.492188 691.761719 356.441406 631.867188 C 357.476562 630.738281 357.046875 630.691406 376.605469 650.503906 C 377.273438 651.183594 377.234375 652.300781 376.515625 652.929688 Z M 434.433594 482.390625 C 422.171875 423.972656 392.113281 405.460938 396.195312 401.074219 C 481.3125 309.71875 624.210938 349.269531 653.855469 463.269531 C 691.398438 607.707031 521.648438 707.210938 417.042969 619.339844 C 408.035156 611.835938 452.785156 569.746094 434.4375 482.386719 Z M 380.683594 575.621094 C 377.535156 584.160156 342.9375 518.515625 368.304688 449.574219 C 371.324219 441.386719 406.179688 506.492188 380.683594 575.621094 Z M 333.316406 410.546875 C 300.71875 470.109375 300.429688 548.359375 349.632812 620.457031 C 350.53125 621.785156 350.371094 623.566406 349.238281 624.699219 C 281.335938 693.546875 179.605469 674.039062 132.980469 607.929688 C 71.046875 520.214844 122.929688 405.617188 216.238281 385.078125 C 282.871094 370.402344 335.09375 407.179688 333.316406 410.542969 Z M 602.941406 665.453125 C 474.433594 739.164062 319.296875 642.390625 321.507812 497.339844 C 322.050781 461.828125 338.632812 411.074219 345.011719 418.128906 C 361.074219 435.875 362.488281 436.128906 361.023438 439.566406 C 315.894531 546.191406 395.957031 670.332031 521.140625 661.625 C 609.335938 654.03125 667.933594 585.449219 669.464844 506.179688 C 672.402344 354.644531 491.273438 282.914062 389.144531 392.320312 C 387.558594 394.042969 387.910156 393.3125 368.675781 375.824219 C 365.640625 373.066406 395.042969 349.519531 401.917969 344.859375 C 527.960938 259.488281 695.886719 346.730469 698.46875 496.730469 C 699.707031 568.035156 664.738281 630 602.933594 665.453125 Z M 602.941406 665.453125 " fill-opacity="1" fill-rule="nonzero"/></g></svg>